<svg width="167" height="160" viewBox="0 0 167 160" fill="none" xmlns="http://www.w3.org/2000/svg">
<g clip-path="url(#clip0)">
<path d="M141.279 77.8669C108.984 59.2227 56.793 59.2227 24.7081 77.8669C-7.38039 96.5147 -7.20967 126.747 25.0851 145.391C57.3834 164.038 109.574 164.038 141.663 145.391C173.744 126.743 173.573 96.5147 141.279 77.8669Z" fill="#F5F5F5"/>
<path d="M152.941 110.663C155.324 109.287 159.172 109.287 161.541 110.663C163.906 112.04 163.895 114.27 161.512 115.643C159.129 117.019 155.281 117.019 152.912 115.643C150.543 114.27 150.558 112.04 152.941 110.663Z" fill="#E0E0E0"/>
<path opacity="0.5" d="M85.1893 112.666L80.7826 106.676C79.8828 105.453 78.4956 104.684 76.9805 104.567L70.486 104.069L60.1645 97.7986L64.0235 95.5686C64.2546 95.4334 64.2546 95.0991 64.0199 94.964L62.4158 94.0499C61.7721 93.6835 60.9825 93.6871 60.3423 94.057L22.524 115.916C22.2928 116.052 22.2928 116.386 22.524 116.518L24.0889 117.421C24.7327 117.794 25.5294 117.794 26.1767 117.421L42.5944 107.939L52.7736 113.779L54.1038 117.521C54.9432 119.875 57.1733 121.451 59.6736 121.451H69.17L75.6147 125.171L91.1859 116.123L85.1893 112.666Z" fill="#E0E0E0"/>
<path opacity="0.5" d="M143.128 107.138C132.835 101.195 116.2 101.195 105.971 107.138C96.9338 112.388 95.9308 120.522 102.92 126.444C97.2824 126.095 91.4387 127.169 87.1316 129.67C79.5736 134.062 79.6127 141.183 87.2205 145.575C94.8282 149.968 107.12 149.968 114.678 145.575C120.693 142.083 121.888 136.861 118.299 132.661C126.963 133.913 136.502 132.583 143.249 128.66C153.478 122.716 153.421 113.081 143.128 107.138Z" fill="#E0E0E0"/>
<path d="M23.6446 123.542C20.9344 121.977 16.5525 121.977 13.8601 123.542C11.1677 125.107 11.1819 127.646 13.8921 129.211C16.6023 130.776 20.9842 130.776 23.6766 129.211C26.369 127.646 26.3548 125.107 23.6446 123.542Z" fill="#E0E0E0"/>
<path d="M50.0311 1.08479L51.9339 0L52.0513 41.592L52.0477 41.5955L36.7077 50.3521L36.7041 48.1754L36.5903 8.76013L50.0311 1.08479Z" fill="#F0F0F0"/>
<path opacity="0.1" d="M50.1415 40.5L50.0312 1.08479L51.9341 0L52.0515 41.592L52.0479 41.5955L50.138 40.5036L50.1415 40.5Z" fill="black"/>
<path opacity="0.2" d="M36.7041 48.1757L50.1377 40.5039L52.0477 41.5958L36.7077 50.3524L36.7041 48.1757Z" fill="black"/>
<path d="M29.0433 13.0708L30.9461 11.9824L31.0635 53.5744L31.0599 53.5779L15.7235 62.3345L15.7164 60.1578L15.6025 20.7426L29.0433 13.0708Z" fill="#F0F0F0"/>
<path opacity="0.1" d="M29.1568 52.4825L29.043 13.0708L30.9458 11.9824L31.0632 53.5744L31.0596 53.5779L29.1497 52.486L29.1568 52.4825Z" fill="black"/>
<path opacity="0.2" d="M15.7163 60.1581L29.1499 52.4863L31.0599 53.5782L15.7234 62.3348L15.7163 60.1581Z" fill="black"/>
<path d="M94.3728 24.4272C94.2554 24.3027 94.1416 24.1747 94.0278 24.0466C94.0029 24.0182 93.978 23.9897 93.9531 23.9577C93.7681 23.7408 93.5832 23.5203 93.4053 23.2926C93.3876 23.2677 93.3662 23.2428 93.3484 23.2179C93.2062 23.0365 93.071 22.848 92.9358 22.6595C92.9145 22.6311 92.8967 22.6026 92.8754 22.5777C92.7473 22.3928 92.6229 22.2043 92.4984 22.0158C92.4699 21.9695 92.4415 21.9233 92.413 21.8771C92.3134 21.7206 92.2174 21.5641 92.1249 21.404C92.1036 21.372 92.0858 21.3364 92.0645 21.3044C91.9578 21.123 91.8546 20.9381 91.755 20.7531C91.7301 20.7069 91.7052 20.6607 91.6839 20.6144C91.6056 20.4651 91.531 20.3192 91.4598 20.1699C91.4349 20.1201 91.41 20.0703 91.3851 20.0205C91.2962 19.832 91.2073 19.6399 91.1255 19.4514C91.1148 19.4229 91.1042 19.3945 91.0899 19.3696C91.0152 19.1989 90.9441 19.0246 90.8765 18.8503C90.8552 18.797 90.8374 18.7472 90.8161 18.6938C90.7378 18.4875 90.6631 18.2812 90.5955 18.075C90.5884 18.0572 90.5849 18.0429 90.5778 18.0252C90.5066 17.8118 90.4426 17.5984 90.3821 17.385C90.3715 17.3423 90.3572 17.3032 90.3466 17.2605C90.279 17.0115 90.2185 16.7661 90.1652 16.5171C90.1545 16.4638 90.1403 16.4069 90.1296 16.3535C90.1083 16.2575 90.0905 16.1615 90.0727 16.0654C90.062 16.005 90.0514 15.9409 90.0407 15.8805C90.0407 15.8734 90.0371 15.8698 90.0371 15.8627C90.0194 15.7631 90.0051 15.6635 89.9909 15.5639C89.9838 15.5035 89.9731 15.4466 89.966 15.3861C89.9376 15.1727 89.9198 14.9593 89.902 14.7495C89.8984 14.7032 89.8949 14.6605 89.8949 14.6143C89.8806 14.3973 89.8735 14.1804 89.8735 13.9705C89.8735 13.8247 89.8771 13.6789 89.8842 13.5366C89.8878 13.4833 89.8913 13.4299 89.8949 13.3801C89.902 13.2948 89.9055 13.2058 89.9127 13.1205C89.9162 13.0671 89.9269 13.0138 89.9304 12.9604C89.9411 12.8786 89.9482 12.8004 89.9589 12.7221C89.966 12.6652 89.9767 12.6119 89.9873 12.555C89.998 12.4838 90.0122 12.4091 90.0265 12.338C90.0371 12.2811 90.0514 12.2278 90.0656 12.1744C90.0798 12.1068 90.094 12.0393 90.1118 11.9752C90.1261 11.9219 90.1438 11.8685 90.1581 11.8152C90.1759 11.7547 90.1936 11.6907 90.2114 11.6302C90.2292 11.5769 90.247 11.5271 90.2648 11.4737C90.2861 11.4168 90.3039 11.3564 90.3252 11.2995C90.3466 11.2497 90.3679 11.1999 90.3893 11.1536C90.4142 11.1003 90.4355 11.0434 90.4604 10.99C90.4817 10.9438 90.5066 10.8976 90.5315 10.8513C90.5564 10.798 90.5813 10.7482 90.6098 10.6984C90.6347 10.6557 90.6596 10.613 90.688 10.5703C90.7165 10.5205 90.7449 10.4708 90.7769 10.4245C90.8054 10.3818 90.8338 10.3427 90.8623 10.3036C90.8943 10.2573 90.9228 10.2147 90.9583 10.1684C90.9868 10.1293 91.0188 10.0937 91.0508 10.0546C91.0828 10.0119 91.1184 9.97281 91.1504 9.93369C91.1824 9.89812 91.218 9.86611 91.25 9.83055C91.2855 9.79498 91.3211 9.75586 91.3567 9.72029C91.3922 9.68828 91.4278 9.65627 91.4634 9.62426C91.5025 9.59225 91.5381 9.55668 91.5772 9.52467C91.6128 9.49622 91.6519 9.46776 91.691 9.43931C91.7301 9.41086 91.7693 9.37885 91.8119 9.35039C91.8511 9.32194 91.8902 9.3006 91.9329 9.2757C92.2921 9.04807 92.6904 8.88447 93.1208 8.79199C92.3205 9.69184 91.8511 11.0647 91.8439 12.8288C91.8439 13.0422 91.8511 13.2592 91.8653 13.4762C91.8688 13.5224 91.8688 13.5651 91.8724 13.6113C91.8866 13.8212 91.908 14.0346 91.9364 14.248C91.9435 14.3084 91.9542 14.3689 91.9613 14.4258C91.9755 14.5254 91.9898 14.625 92.0075 14.7246C92.0182 14.7921 92.0324 14.8597 92.0431 14.9273C92.0609 15.0233 92.0787 15.1193 92.1 15.2189C92.1107 15.2723 92.1214 15.3256 92.1356 15.3825C92.1889 15.6315 92.2494 15.8769 92.317 16.1259C92.3277 16.1686 92.3419 16.2077 92.3525 16.2504C92.413 16.4638 92.477 16.6772 92.5482 16.8906C92.5553 16.9084 92.5588 16.9261 92.5659 16.9404C92.6335 17.1467 92.7082 17.353 92.7865 17.5592C92.8078 17.6126 92.8256 17.6624 92.8469 17.7157C92.9145 17.89 92.9856 18.0607 93.0603 18.235C93.071 18.2635 93.0817 18.2919 93.0959 18.3168C93.1777 18.5089 93.2666 18.6974 93.3555 18.8859C93.3804 18.9357 93.4053 18.9855 93.4267 19.0353C93.5014 19.1846 93.5761 19.334 93.6543 19.4834C93.6792 19.5296 93.7005 19.5759 93.7254 19.6221C93.825 19.8071 93.9282 19.992 94.0349 20.1734C94.0562 20.209 94.074 20.241 94.0953 20.2766C94.1878 20.4366 94.2874 20.5931 94.3834 20.7496C94.4119 20.7958 94.4403 20.8421 94.4688 20.8847C94.5897 21.0733 94.7178 21.2618 94.8458 21.4467C94.8636 21.4752 94.8849 21.5001 94.9063 21.5285C95.0414 21.717 95.1801 21.9055 95.3188 22.0905C95.3366 22.1154 95.358 22.1403 95.3757 22.1652C95.5536 22.3928 95.735 22.6133 95.9235 22.8303C95.9484 22.8587 95.9733 22.8872 95.9982 22.9156C96.112 23.0472 96.2293 23.1753 96.3467 23.2997C96.3538 23.3069 96.3609 23.314 96.3681 23.3211C96.4925 23.4527 96.6206 23.5843 96.7486 23.7088C96.7771 23.7372 96.802 23.7621 96.8304 23.787C96.9976 23.9506 97.1648 24.1071 97.339 24.26C97.3533 24.2743 97.371 24.2885 97.3853 24.3027C97.5631 24.4592 97.7445 24.6086 97.9259 24.7509C97.9615 24.7793 97.997 24.8042 98.029 24.8327C98.2104 24.9714 98.3918 25.103 98.5768 25.231C98.6088 25.2524 98.6443 25.2737 98.6763 25.295C98.8684 25.4231 99.064 25.5476 99.2632 25.6614C99.4233 25.7539 99.5797 25.8357 99.7327 25.9139C99.7789 25.9353 99.8216 25.9566 99.8678 25.9815C99.9852 26.0384 100.106 26.0917 100.22 26.1415C100.263 26.1593 100.305 26.1771 100.344 26.1949C100.455 26.2411 100.565 26.2802 100.672 26.3194C100.7 26.33 100.725 26.3407 100.753 26.3514C100.889 26.3976 101.024 26.4403 101.155 26.4759C101.234 26.4972 101.312 26.515 101.39 26.5328C101.426 26.5399 101.461 26.5506 101.497 26.5577C101.611 26.5826 101.721 26.6039 101.835 26.6217C102.005 26.6466 102.169 26.6608 102.333 26.6715C102.365 26.675 102.4 26.675 102.432 26.6786C102.578 26.6822 102.724 26.6822 102.863 26.675C102.887 26.675 102.912 26.6715 102.934 26.6679C103.048 26.6608 103.161 26.6466 103.272 26.6288C103.307 26.6217 103.339 26.6181 103.375 26.611C103.41 26.6039 103.446 26.5932 103.481 26.5861C103.211 26.892 102.902 27.1445 102.56 27.3401H102.557C102.546 27.3473 102.532 27.3544 102.518 27.3579C102.51 27.3615 102.503 27.365 102.496 27.3686C102.407 27.4184 102.315 27.4611 102.222 27.5038C102.219 27.5038 102.219 27.5073 102.215 27.5073C102.183 27.5215 102.151 27.5358 102.119 27.5464C102.023 27.5856 101.924 27.6211 101.82 27.6531C101.803 27.6602 101.785 27.6674 101.764 27.6709C101.646 27.7029 101.525 27.7314 101.401 27.7527C101.397 27.7527 101.397 27.7527 101.394 27.7527C101.362 27.7598 101.33 27.7634 101.298 27.7669C101.191 27.7847 101.081 27.7954 100.967 27.8061C100.938 27.8096 100.91 27.8132 100.882 27.8132C100.743 27.8203 100.601 27.8203 100.458 27.8167C100.455 27.8167 100.455 27.8167 100.451 27.8167C100.419 27.8167 100.391 27.8132 100.359 27.8132C100.28 27.8096 100.202 27.8025 100.124 27.7954C100.035 27.7847 99.9461 27.7776 99.8572 27.7634C99.8003 27.7563 99.7434 27.7421 99.6865 27.7314C99.6331 27.7207 99.5762 27.7136 99.5228 27.6994C99.4908 27.6923 99.4553 27.6816 99.4233 27.6745C99.4126 27.6709 99.4019 27.6709 99.3948 27.6674C99.3272 27.6496 99.2561 27.6353 99.185 27.614C99.0534 27.5784 98.9218 27.5393 98.7902 27.4931C98.7617 27.4824 98.7368 27.4717 98.7084 27.4611C98.5981 27.4219 98.4914 27.3828 98.3811 27.3366H98.3776C98.3385 27.3188 98.2958 27.301 98.2567 27.2832C98.1393 27.2334 98.0219 27.1801 97.901 27.1232C97.8761 27.109 97.8476 27.0983 97.8227 27.0841C97.805 27.0734 97.7836 27.0663 97.7658 27.0556C97.6093 26.9774 97.4529 26.8956 97.2964 26.8031C97.1007 26.6893 96.9051 26.5648 96.7095 26.4367C96.7024 26.4296 96.6917 26.4261 96.6846 26.419C96.6597 26.4047 96.6348 26.3869 96.6135 26.3692C96.4285 26.2447 96.2471 26.1095 96.0657 25.9708C96.0444 25.953 96.0195 25.9353 95.9982 25.9175C95.9875 25.9068 95.9733 25.8997 95.9626 25.889C95.7812 25.7467 95.5998 25.5974 95.422 25.4409C95.4113 25.4338 95.4042 25.4231 95.3935 25.416C95.3864 25.4089 95.3828 25.4053 95.3757 25.3982C95.205 25.2453 95.0343 25.0888 94.8707 24.9251C94.8422 24.8967 94.8138 24.8718 94.7889 24.8469C94.6608 24.7189 94.5328 24.5908 94.4083 24.4592C94.3905 24.445 94.3834 24.4379 94.3728 24.4272Z" fill="#EBEBEB"/>
<path d="M103.357 20.373V20.8319L104.644 21.5752L104.648 21.1164L103.357 20.373Z" fill="white"/>
<path d="M92.9179 10.7275L92.7188 11.005L93.8356 12.3956L94.0347 12.1111L92.9179 10.7275Z" fill="white"/>
<path d="M105.74 21.9771C105.726 26.6969 102.386 28.5961 98.2779 26.2274C94.1699 23.8551 90.8515 18.111 90.8658 13.3913C90.88 8.67154 94.2197 6.76871 98.3277 9.14102C102.432 11.5098 105.751 17.2574 105.74 21.9771ZM94.9417 17.4174C94.9737 17.5206 95.0449 17.6166 95.1231 17.6593C95.1516 17.6735 95.1765 17.6842 95.2014 17.6878L98.3597 17.9367C98.4095 17.9474 98.4522 17.9332 98.4771 17.8905L100.544 14.3871C100.593 14.3018 100.554 14.1417 100.455 14.0279C100.426 13.9959 100.398 13.971 100.366 13.9532C100.295 13.9105 100.223 13.9177 100.188 13.9781L98.1534 17.4246L95.0413 17.1791C94.9453 17.172 94.8991 17.2787 94.9417 17.4174ZM101.013 14.3267L101.664 13.4126L101.319 12.9858L100.668 13.8999L101.013 14.3267ZM101.283 25.8432L101.628 25.8148L100.985 24.1574L100.643 24.1858L101.283 25.8432ZM92.8931 18.4133L94.0134 18.3173L93.8178 17.8087L92.6975 17.9047L92.8931 18.4133ZM103.688 24.6446L103.887 24.3637L102.77 22.9766L102.571 23.2575L103.688 24.6446ZM92.918 10.7273L92.7188 11.0083L93.8356 12.3954L94.0348 12.1144L92.918 10.7273ZM102.784 17.5633L103.905 17.4672L103.709 16.9586L102.589 17.0547L102.784 17.5633ZM95.3188 9.52159L94.9738 9.55004L95.6175 11.2075L95.9625 11.179L95.3188 9.52159ZM95.2832 22.379L95.9341 21.465L95.5926 21.0382L94.9417 21.9522L95.2832 22.379ZM93.2488 14.9953V14.5365L91.9577 13.7896V14.2484L93.2488 14.9953ZM104.648 21.1164L103.357 20.3731V20.8319L104.648 21.5752V21.1164ZM98.0823 24.8616L98.4771 25.0892L98.4807 23.6061L98.0859 23.3785L98.0823 24.8616ZM98.5198 10.5068L98.125 10.2792L98.1214 11.7623L98.5162 11.9899L98.5198 10.5068Z" fill="#E0E0E0"/>
<path d="M98.1247 10.2793L98.1211 11.7624L98.5159 11.9936L98.5195 10.5069L98.1247 10.2793Z" fill="white"/>
<path d="M101.319 12.9893L100.672 13.8998L101.013 14.3266L101.664 13.4161L101.319 12.9893Z" fill="white"/>
<path d="M103.709 16.959L102.588 17.0515L102.784 17.5636L103.908 17.4676L103.709 16.959Z" fill="white"/>
<path d="M102.77 22.9727L102.571 23.2536L103.688 24.6443L103.887 24.3598L102.77 22.9727Z" fill="white"/>
<path d="M100.988 24.1572L100.643 24.1857L101.283 25.8431L101.628 25.8146L100.988 24.1572Z" fill="white"/>
<path d="M98.0856 23.375L98.082 24.8617L98.4804 25.0893L98.4839 23.6062L98.0856 23.375Z" fill="white"/>
<path d="M95.5892 21.042L94.9419 21.9525L95.2833 22.3793L95.9306 21.4652L95.5892 21.042Z" fill="white"/>
<path d="M93.8176 17.8047L92.6973 17.9007L92.8929 18.4129L94.0168 18.3169L93.8176 17.8047Z" fill="white"/>
<path d="M91.9577 13.79L91.9541 14.2489L93.2487 14.9958V14.5369L91.9577 13.79Z" fill="white"/>
<path d="M95.3186 9.52148L94.9736 9.55349L95.6174 11.2109L95.9624 11.1825L95.3186 9.52148Z" fill="white"/>
<path d="M98.3028 17.4568C98.2779 17.4426 98.2494 17.4319 98.2245 17.4319L98.1569 17.4284L95.0448 17.183C94.9452 17.1758 94.899 17.2825 94.9417 17.4213C94.9737 17.5244 95.0448 17.6204 95.1231 17.6631C95.1515 17.6773 95.1764 17.688 95.2013 17.6916L98.3597 17.9405H98.3774C98.477 17.9476 98.5233 17.8409 98.4806 17.7022C98.4521 17.592 98.381 17.4995 98.3028 17.4568Z" fill="white"/>
<path d="M100.369 13.9529C100.298 13.9103 100.227 13.9174 100.191 13.9778L98.1567 17.4243L98.2243 17.4278C98.2492 17.4278 98.2777 17.4385 98.3026 17.4527C98.3773 17.4954 98.4519 17.5879 98.484 17.6946C98.5266 17.8369 98.4804 17.9436 98.3808 17.9329H98.363C98.4128 17.9436 98.4555 17.9293 98.4804 17.8866L100.547 14.3833C100.597 14.2979 100.557 14.1379 100.458 14.0241C100.429 13.9956 100.397 13.9707 100.369 13.9529Z" fill="#F5F5F5"/>
<path d="M103.392 27.7955C103.432 27.7671 103.474 27.7351 103.513 27.703C103.556 27.6675 103.595 27.6319 103.638 27.5928C103.677 27.5572 103.716 27.5252 103.752 27.4896C103.791 27.4505 103.83 27.4114 103.869 27.3687C103.905 27.3296 103.94 27.294 103.976 27.2549C104.015 27.2122 104.047 27.166 104.086 27.1233C104.118 27.0842 104.154 27.0415 104.186 27.0024C104.221 26.9561 104.253 26.9063 104.285 26.8601C104.317 26.8174 104.349 26.7747 104.378 26.7285C104.41 26.6787 104.438 26.6254 104.47 26.5756C104.499 26.5293 104.527 26.4831 104.556 26.4333C104.584 26.38 104.612 26.323 104.641 26.2661C104.666 26.2163 104.694 26.1666 104.716 26.1168C104.744 26.0599 104.765 25.9994 104.794 25.9389C104.815 25.8856 104.84 25.8358 104.861 25.7824C104.886 25.722 104.908 25.6544 104.929 25.5939C104.947 25.5406 104.968 25.4837 104.989 25.4303C105.011 25.3663 105.029 25.2952 105.046 25.2276C105.064 25.1707 105.082 25.1138 105.096 25.0533C105.114 24.9857 105.128 24.911 105.146 24.8399C105.16 24.7794 105.174 24.719 105.189 24.6585C105.203 24.5838 105.217 24.5056 105.228 24.4273C105.238 24.3669 105.249 24.3064 105.26 24.2459C105.274 24.1606 105.281 24.0681 105.292 23.9792C105.299 23.9223 105.306 23.8689 105.313 23.812C105.324 23.7124 105.327 23.6093 105.334 23.5097C105.338 23.4599 105.342 23.4137 105.345 23.3639C105.352 23.2109 105.356 23.0544 105.356 22.898C105.356 22.6668 105.349 22.4356 105.334 22.2008C105.334 22.1866 105.331 22.1724 105.331 22.1546C105.313 21.8914 105.292 21.6282 105.256 21.365C105.253 21.3366 105.249 21.3081 105.246 21.2761C105.228 21.1338 105.206 20.9916 105.182 20.8457C105.171 20.7746 105.157 20.6999 105.142 20.6288C105.125 20.5256 105.103 20.4189 105.082 20.3122C105.078 20.2945 105.075 20.2767 105.071 20.2589C104.95 19.6756 104.79 19.0887 104.598 18.5019C104.346 17.7372 104.033 16.9796 103.673 16.2363C103.666 16.222 103.659 16.2043 103.649 16.19C103.446 15.7739 103.225 15.3649 102.994 14.9594C102.973 14.9203 102.951 14.8847 102.927 14.8492C102.82 14.6713 102.713 14.4935 102.599 14.3157C102.574 14.273 102.546 14.2303 102.521 14.1912C102.219 13.7181 101.895 13.2629 101.554 12.8254C101.55 12.8218 101.547 12.8147 101.543 12.8112C101.209 12.3808 100.857 11.9682 100.49 11.577C100.49 11.577 100.49 11.5734 100.487 11.5734C100.348 11.4241 100.206 11.2782 100.06 11.136C100.039 11.1146 100.014 11.0897 99.9923 11.0684C99.8074 10.887 99.6153 10.7092 99.4232 10.5384C99.4161 10.5313 99.409 10.5242 99.4019 10.5207C99.1992 10.3428 98.9964 10.1721 98.7866 10.0085C98.7475 9.98005 98.7119 9.94804 98.6728 9.91958C98.4771 9.7702 98.2815 9.62438 98.0824 9.48922C98.0752 9.48211 98.0646 9.47855 98.0575 9.47144C97.9294 9.38608 97.8049 9.30072 97.6769 9.22247C97.5666 9.15134 97.4564 9.08376 97.3426 9.01974C97.1718 8.92015 97.0011 8.83123 96.834 8.74587C96.8304 8.74232 96.8233 8.74232 96.8197 8.73876C96.2969 8.47556 95.7883 8.27639 95.2975 8.14124C95.2975 8.14124 95.2939 8.14124 95.2903 8.14124C95.2441 8.12701 95.1979 8.11634 95.1516 8.10567C95.077 8.08789 95.0058 8.06654 94.9311 8.05232C94.9276 8.05232 94.9276 8.05232 94.924 8.04876C94.8742 8.03809 94.8209 8.03098 94.7711 8.02031C94.7035 8.00608 94.6359 7.99185 94.5683 7.98118C94.5648 7.98118 94.5648 7.98118 94.5612 7.98118C94.5577 7.98118 94.5541 7.98118 94.5506 7.98118C94.5008 7.97407 94.451 7.97051 94.4012 7.9634C94.3123 7.95273 94.2233 7.94206 94.138 7.93495C94.1309 7.93495 94.1238 7.93495 94.1166 7.93495C94.0882 7.93139 94.0633 7.93139 94.0348 7.93139C93.8392 7.92072 93.6472 7.91716 93.4622 7.92783C93.4587 7.92783 93.4587 7.92783 93.4551 7.92783C93.4302 7.92783 93.4017 7.93139 93.3768 7.93495C93.3733 7.93495 93.3733 7.93495 93.3697 7.93495C93.2488 7.94562 93.1314 7.95984 93.0141 7.97763C93.0105 7.97763 93.0105 7.97763 93.007 7.97763C92.8362 8.00608 92.6726 8.03809 92.5126 8.08433C92.509 8.08433 92.5055 8.08433 92.5019 8.08789C92.4948 8.08789 92.4912 8.09144 92.4841 8.095C92.4735 8.09856 92.4628 8.10211 92.4521 8.10567C92.3418 8.13768 92.2352 8.1768 92.1285 8.21948C92.1249 8.21948 92.1249 8.21948 92.1213 8.22304C92.1035 8.23015 92.0893 8.23727 92.0715 8.24438C91.9222 8.30484 91.7799 8.37598 91.6412 8.45422C91.6376 8.45778 91.6305 8.45778 91.627 8.46134L93.5974 7.31608C93.6116 7.30897 93.6258 7.2983 93.64 7.29119C93.6578 7.28052 93.6756 7.2734 93.6934 7.26629C93.7894 7.21294 93.889 7.1667 93.9886 7.12046C94.0064 7.11335 94.0242 7.10268 94.0455 7.09201C94.0597 7.0849 94.0775 7.08134 94.0917 7.07423C94.2091 7.02799 94.33 6.98175 94.4545 6.94619C94.4581 6.94619 94.4652 6.94263 94.4688 6.93907H94.4723C94.6039 6.89995 94.7391 6.8715 94.8742 6.8466C94.8884 6.84304 94.9062 6.83949 94.9204 6.83593C94.9418 6.83237 94.9631 6.83237 94.9845 6.82882C95.1018 6.81103 95.2228 6.79681 95.3473 6.78614C95.3686 6.78614 95.3864 6.77902 95.4042 6.77902C95.4113 6.77902 95.4184 6.77902 95.4255 6.77902C95.5784 6.76835 95.7349 6.76835 95.8914 6.77547C95.9057 6.77547 95.9199 6.77547 95.9377 6.77547C95.9875 6.77902 96.0373 6.78258 96.0906 6.78614C96.1262 6.78969 96.1617 6.78969 96.1973 6.79325C96.304 6.80392 96.4143 6.81459 96.5245 6.83237C96.5281 6.83237 96.5316 6.83237 96.5352 6.83237C96.6561 6.85016 96.777 6.87505 96.898 6.89995C96.9371 6.90706 96.9762 6.91773 97.0118 6.9284C97.0865 6.94619 97.1647 6.96397 97.243 6.98531C97.2501 6.98887 97.2572 6.98887 97.2643 6.99242C97.4066 7.03155 97.5524 7.07778 97.6982 7.12758C97.7267 7.13825 97.7587 7.14892 97.7871 7.15959C97.9045 7.20227 98.0219 7.24495 98.1428 7.29474C98.157 7.30186 98.1748 7.30541 98.1891 7.31253C98.2175 7.3232 98.2495 7.34098 98.278 7.35165C98.406 7.405 98.5305 7.46546 98.6621 7.52593C98.7119 7.55082 98.7581 7.57216 98.8079 7.59706C98.9751 7.68242 99.1458 7.77134 99.3165 7.87093C99.5299 7.99541 99.7398 8.12701 99.9496 8.26928C99.9852 8.29417 100.021 8.31551 100.056 8.34041C100.255 8.47556 100.451 8.62139 100.647 8.77077C100.686 8.79922 100.721 8.83123 100.761 8.85969C100.96 9.01618 101.155 9.17623 101.347 9.3434C101.365 9.35762 101.379 9.37185 101.397 9.38963C101.582 9.55324 101.767 9.72396 101.945 9.9018C101.963 9.91958 101.98 9.93381 101.998 9.95159C102.009 9.96226 102.02 9.97293 102.03 9.98716C102.169 10.1259 102.304 10.2646 102.439 10.4068C102.446 10.414 102.454 10.4211 102.461 10.4282C102.589 10.5633 102.713 10.7056 102.838 10.8479C102.848 10.8621 102.863 10.8728 102.873 10.887C102.887 10.9048 102.902 10.9226 102.916 10.9404C103.119 11.1751 103.314 11.4134 103.506 11.6588C103.513 11.6659 103.517 11.673 103.524 11.6801C103.538 11.6979 103.553 11.7193 103.567 11.7371C103.72 11.9362 103.869 12.139 104.015 12.3417C104.029 12.363 104.047 12.3808 104.061 12.4022C104.068 12.4128 104.075 12.4235 104.082 12.4306C104.221 12.6298 104.356 12.8325 104.488 13.0388C104.502 13.0601 104.513 13.0779 104.527 13.0957C104.545 13.1242 104.563 13.1562 104.58 13.1846C104.687 13.3518 104.79 13.5225 104.89 13.6932C104.904 13.7217 104.922 13.7466 104.94 13.775C104.947 13.7857 104.95 13.7964 104.957 13.807C105.071 14.0027 105.182 14.2018 105.292 14.4046C105.299 14.4224 105.31 14.4366 105.32 14.4544C105.338 14.4864 105.352 14.5219 105.37 14.554C105.455 14.714 105.537 14.8741 105.615 15.0377C105.633 15.0697 105.651 15.1052 105.665 15.1372C105.676 15.1586 105.683 15.1799 105.694 15.1977C105.793 15.404 105.886 15.6067 105.978 15.8166C105.982 15.8237 105.985 15.8272 105.985 15.8344C105.996 15.8557 106.003 15.877 106.01 15.8984C106.092 16.0869 106.167 16.2754 106.241 16.4639C106.252 16.4959 106.266 16.5244 106.277 16.5564C106.288 16.5813 106.295 16.6097 106.305 16.6346C106.391 16.8587 106.473 17.0792 106.547 17.3033C106.547 17.3068 106.551 17.3104 106.551 17.3139C106.554 17.3282 106.558 17.3388 106.562 17.3531C106.636 17.5843 106.707 17.8154 106.775 18.0466C106.782 18.0751 106.793 18.1035 106.8 18.132C106.803 18.1498 106.807 18.164 106.81 18.1782C106.885 18.445 106.949 18.7153 107.006 18.982C107.01 19.0069 107.02 19.0283 107.024 19.0532C107.031 19.0887 107.038 19.1243 107.045 19.1563C107.067 19.263 107.088 19.3662 107.106 19.4729C107.12 19.544 107.131 19.6187 107.145 19.6898C107.163 19.8001 107.177 19.9068 107.195 20.0135C107.202 20.0633 107.212 20.1166 107.216 20.1664C107.216 20.1806 107.22 20.1913 107.22 20.2055C107.248 20.4367 107.269 20.6679 107.287 20.8955C107.291 20.9453 107.294 20.9916 107.294 21.0414C107.308 21.2761 107.316 21.5108 107.316 21.7385C107.308 24.2708 106.412 26.0563 104.972 26.8957L103.001 28.0409C103.044 28.016 103.083 27.9876 103.126 27.9627C103.168 27.9342 103.211 27.9093 103.25 27.8809C103.307 27.8631 103.35 27.8275 103.392 27.7955Z" fill="#EBEBEB"/>
<path d="M89.2759 13.6148C89.2617 18.7151 92.8504 24.9286 97.2892 27.493C99.5868 28.8196 101.664 28.905 103.133 27.9731C103.175 27.9447 103.218 27.9198 103.257 27.8913C103.304 27.8593 103.346 27.8273 103.389 27.7917C103.428 27.7633 103.471 27.7313 103.51 27.6993C103.553 27.6637 103.592 27.6281 103.634 27.589C103.673 27.5534 103.713 27.5214 103.748 27.4859C103.787 27.4467 103.826 27.4076 103.865 27.3649C103.901 27.3258 103.937 27.2903 103.972 27.2511C104.011 27.2084 104.043 27.1622 104.082 27.1195C104.114 27.0804 104.15 27.0377 104.182 26.9986C104.218 26.9524 104.25 26.9026 104.282 26.8563C104.314 26.8137 104.346 26.771 104.374 26.7247C104.406 26.6749 104.435 26.6216 104.467 26.5718C104.495 26.5256 104.523 26.4793 104.552 26.4295C104.58 26.3762 104.609 26.3193 104.637 26.2624C104.662 26.2126 104.691 26.1628 104.712 26.113C104.74 26.0561 104.762 25.9956 104.79 25.9351C104.812 25.8818 104.836 25.832 104.858 25.7787C104.883 25.7182 104.904 25.6506 104.925 25.5901C104.943 25.5368 104.965 25.4799 104.986 25.4265C105.007 25.3625 105.025 25.2914 105.043 25.2238C105.061 25.1669 105.078 25.11 105.093 25.0495C105.11 24.982 105.125 24.9073 105.142 24.8361C105.157 24.7757 105.171 24.7152 105.185 24.6547C105.199 24.58 105.213 24.5018 105.224 24.4236C105.235 24.3631 105.245 24.3026 105.256 24.2422C105.27 24.1568 105.278 24.0643 105.288 23.9754C105.295 23.9185 105.302 23.8652 105.31 23.8082C105.32 23.7087 105.324 23.6055 105.331 23.5059C105.334 23.4561 105.338 23.4099 105.342 23.3601C105.349 23.2072 105.352 23.0507 105.352 22.8942C105.352 22.663 105.345 22.4318 105.331 22.1971C105.331 22.1828 105.327 22.1686 105.327 22.1508C105.31 21.8876 105.288 21.6244 105.253 21.3612C105.249 21.3328 105.245 21.3043 105.242 21.2723C105.224 21.1301 105.203 20.9878 105.178 20.842C105.167 20.7708 105.153 20.6961 105.139 20.625C105.121 20.5219 105.1 20.4152 105.078 20.3085C105.075 20.2907 105.071 20.2729 105.068 20.2551C104.947 19.6718 104.787 19.085 104.595 18.4981C104.342 17.7334 104.029 16.9758 103.67 16.2325C103.663 16.2183 103.656 16.2005 103.645 16.1863C103.442 15.7701 103.222 15.3611 102.991 14.9556C102.969 14.9165 102.944 14.881 102.923 14.8454C102.816 14.6676 102.71 14.4897 102.596 14.3119C102.571 14.2692 102.542 14.2265 102.518 14.1874C102.215 13.7144 101.892 13.2591 101.55 12.8216C101.547 12.8181 101.543 12.811 101.539 12.8074C101.205 12.377 100.853 11.9645 100.487 11.5732L100.483 11.5697C100.344 11.4203 100.202 11.2745 100.056 11.1322C100.035 11.1109 100.01 11.0895 99.9887 11.0646C99.8037 10.8832 99.6117 10.7054 99.4196 10.5347C99.4125 10.5276 99.4054 10.5204 99.3983 10.5169C99.1955 10.3391 98.9928 10.1683 98.783 10.0047C98.7438 9.97627 98.7083 9.94426 98.6692 9.91581C98.4735 9.76643 98.2779 9.6206 98.0787 9.48545C98.0716 9.47834 98.061 9.47478 98.0538 9.46767C97.9258 9.38231 97.8013 9.29694 97.6733 9.2187C97.563 9.15112 97.4528 9.07999 97.339 9.01597C97.1682 8.91638 96.9975 8.82746 96.8303 8.7421C96.8268 8.73854 96.8197 8.73854 96.8161 8.73499C96.2933 8.47179 95.7847 8.27262 95.2939 8.13746C95.2441 8.12324 95.1978 8.11257 95.148 8.1019C95.0733 8.08411 95.0022 8.06277 94.9275 8.04855C94.8742 8.03788 94.8208 8.02721 94.7675 8.02009C94.6999 8.00587 94.6323 7.99164 94.5647 7.98097C94.5078 7.97386 94.4509 7.96674 94.394 7.95963C94.3051 7.94896 94.2162 7.93829 94.1308 7.93117C94.0952 7.92762 94.0632 7.92762 94.0312 7.92406C93.8356 7.91339 93.6435 7.90983 93.4586 7.92051C93.4266 7.92051 93.3981 7.92406 93.3661 7.92762C93.2452 7.93829 93.1278 7.95252 93.0105 7.9703C93.0069 7.9703 93.0069 7.9703 93.0033 7.9703C92.8326 7.99875 92.669 8.03076 92.509 8.077C92.4876 8.08411 92.4698 8.09123 92.4485 8.09478C92.3382 8.12679 92.2315 8.16592 92.1248 8.2086C92.1071 8.21571 92.0857 8.22282 92.0679 8.23349C91.9185 8.29396 91.7763 8.36509 91.6376 8.44334C90.1864 9.28627 89.283 11.0717 89.2759 13.6148ZM94.3976 24.4556C94.3904 24.4485 94.3833 24.4378 94.3727 24.4307C94.2553 24.3062 94.1415 24.1781 94.0277 24.0501C94.0028 24.0217 93.9779 23.9932 93.953 23.9612C93.768 23.7442 93.5831 23.5237 93.4052 23.2961C93.3875 23.2712 93.3661 23.2463 93.3483 23.2214C93.2061 23.04 93.0709 22.8515 92.9358 22.663C92.9144 22.6345 92.8966 22.6061 92.8753 22.5812C92.7473 22.3962 92.6228 22.2077 92.4983 22.0192C92.4698 21.973 92.4414 21.9268 92.4129 21.8805C92.3133 21.724 92.2173 21.5675 92.1248 21.4075C92.1035 21.3755 92.0857 21.3399 92.0644 21.3079C91.9577 21.1265 91.8545 20.9416 91.7549 20.753C91.73 20.7068 91.7051 20.6606 91.6838 20.6143C91.6056 20.465 91.5309 20.3191 91.4597 20.1698C91.4348 20.12 91.4099 20.0702 91.385 20.0204C91.2961 19.8319 91.2072 19.6398 91.1254 19.4513C91.1147 19.4228 91.1041 19.3944 91.0898 19.3695C91.0151 19.1988 90.944 19.0245 90.8764 18.8502C90.8551 18.7969 90.8373 18.7471 90.816 18.6937C90.7377 18.4874 90.663 18.2811 90.5955 18.0749C90.5883 18.0571 90.5848 18.0429 90.5777 18.0251C90.5065 17.8117 90.4425 17.5983 90.3821 17.3849C90.3714 17.3422 90.3572 17.3031 90.3465 17.2604C90.2789 17.0114 90.2184 16.766 90.1651 16.517C90.1544 16.4637 90.1402 16.4068 90.1295 16.3534C90.1082 16.2574 90.0904 16.1614 90.0726 16.0653C90.062 16.0049 90.0513 15.9408 90.0406 15.8804C90.0228 15.7737 90.0086 15.667 89.9908 15.5638C89.9837 15.5034 89.973 15.4465 89.9659 15.386C89.9375 15.1726 89.9197 14.9592 89.9019 14.7494C89.8983 14.7031 89.8948 14.6604 89.8948 14.6142C89.8806 14.3972 89.8734 14.1803 89.8734 13.9704C89.8734 13.8246 89.877 13.6788 89.8841 13.5365C89.8877 13.4832 89.8912 13.4298 89.8948 13.38C89.9019 13.2947 89.9055 13.2057 89.9126 13.1204C89.9161 13.067 89.9268 13.0137 89.9304 12.9603C89.941 12.8785 89.9481 12.8003 89.9588 12.722C89.9659 12.6651 89.9766 12.6118 89.9873 12.5549C89.9979 12.4837 90.0122 12.409 90.0264 12.3379C90.0371 12.281 90.0513 12.2277 90.0655 12.1743C90.0797 12.1067 90.094 12.0392 90.1117 11.9751C90.126 11.9218 90.1438 11.8684 90.158 11.8151C90.1758 11.7546 90.1936 11.6906 90.2113 11.6301C90.2291 11.5768 90.2469 11.527 90.2647 11.4736C90.286 11.4167 90.3038 11.3563 90.3252 11.2994C90.3465 11.2496 90.3678 11.1998 90.3892 11.1535C90.4141 11.1002 90.4354 11.0433 90.4603 10.9899C90.4816 10.9437 90.5065 10.8975 90.5314 10.8512C90.5563 10.7979 90.5812 10.7481 90.6097 10.6983C90.6346 10.6556 90.6595 10.6129 90.6879 10.5702C90.7164 10.5204 90.7448 10.4707 90.7768 10.4244C90.8053 10.3817 90.8338 10.3426 90.8622 10.3035C90.8942 10.2573 90.9227 10.2146 90.9582 10.1683C90.9867 10.1292 91.0187 10.0936 91.0507 10.0545C91.0827 10.0118 91.1183 9.97272 91.1503 9.93359C91.1823 9.89803 91.2179 9.86602 91.2499 9.83045C91.2855 9.79488 91.321 9.75576 91.3566 9.72019C91.3922 9.68818 91.4277 9.65617 91.4633 9.62416C91.5024 9.59215 91.538 9.55658 91.5771 9.52457C91.6127 9.49612 91.6518 9.46767 91.6909 9.43921C91.73 9.41076 91.7692 9.37875 91.8118 9.3503C91.851 9.32184 91.8901 9.3005 91.9328 9.2756C92.292 9.04798 92.6903 8.88437 93.1207 8.79189C94.3193 8.53581 95.7704 8.81679 97.3354 9.72019C101.443 12.0925 104.762 17.8366 104.748 22.5598C104.744 24.3204 104.275 25.6862 103.474 26.5896C103.204 26.8955 102.895 27.148 102.553 27.3436H102.55C102.539 27.3507 102.525 27.3578 102.51 27.3614C102.411 27.4147 102.311 27.4645 102.208 27.5108C102.176 27.525 102.144 27.5392 102.112 27.5499C102.016 27.589 101.916 27.6246 101.813 27.6566C101.795 27.6637 101.778 27.6708 101.756 27.6744C101.635 27.7099 101.515 27.7348 101.386 27.7597C101.354 27.7668 101.322 27.7704 101.29 27.774C101.184 27.7917 101.073 27.8024 100.96 27.8131C100.931 27.8166 100.903 27.8202 100.874 27.8202C100.736 27.8273 100.59 27.8273 100.444 27.8238C100.412 27.8238 100.383 27.8202 100.351 27.8202C100.273 27.8166 100.195 27.8095 100.113 27.8024C100.024 27.7917 99.9353 27.7846 99.8464 27.7704C99.7895 27.7633 99.7326 27.7491 99.6757 27.7384C99.6224 27.7277 99.5654 27.7206 99.5121 27.7064C99.4694 27.6957 99.4267 27.685 99.3841 27.6744C99.3165 27.6566 99.2453 27.6424 99.1742 27.621C98.911 27.5463 98.6407 27.4539 98.3633 27.3436C98.3242 27.3258 98.2815 27.308 98.2423 27.2903C98.1001 27.2298 97.9543 27.1622 97.8084 27.0911C97.7907 27.0804 97.7693 27.0733 97.7515 27.0626C97.595 26.9844 97.4385 26.9026 97.282 26.8101C97.0864 26.6963 96.8908 26.5718 96.6952 26.4438C96.6881 26.4366 96.6774 26.4331 96.6703 26.426C96.4391 26.2695 96.2079 26.1023 95.9839 25.928C95.9732 25.9174 95.959 25.9103 95.9483 25.8996C95.7562 25.7466 95.5642 25.5902 95.3757 25.423C95.3685 25.4159 95.365 25.4123 95.3579 25.4052C95.1872 25.2523 95.0164 25.0958 94.8528 24.9322C94.8244 24.9037 94.7959 24.8788 94.771 24.8539C94.6501 24.7152 94.522 24.5872 94.3976 24.4556Z" fill="white"/>
<path d="M145.82 40.7106L145.799 49.019L144.789 49.6059L144.817 40.1309L145.82 40.7106Z" fill="#F0F0F0"/>
<path d="M156.668 55.2971L156.664 56.4601L144.789 49.6064L145.799 49.0195L156.668 55.2971Z" fill="#F5F5F5"/>
<path d="M143.569 50.2993L157.877 58.5615L157.913 46.2944L143.604 38.0322L143.569 50.2993ZM144.789 49.6057L144.817 40.1342L145.82 40.714L156.689 46.9915L156.665 55.3L156.661 56.463L144.789 49.6057Z" fill="#E0E0E0"/>
<path d="M143.605 38.0325L144.612 37.4492L158.92 45.7079L157.914 46.2947L143.605 38.0325Z" fill="#F5F5F5"/>
<path d="M158.92 45.708L158.884 57.975L157.877 58.5619L157.913 46.2949L158.92 45.708Z" fill="#F0F0F0"/>
<path d="M149.274 43.8652L146.311 46.1984L146.304 48.4818L156.163 54.1725L156.17 51.8927L154.292 48.1617L152.603 49.4706L153.2 51.3236L152.336 49.6769L149.274 43.8652Z" fill="#E0E0E0"/>
<path d="M152.514 45.0152C152.051 44.7485 151.671 44.9619 151.671 45.4954C151.671 46.0289 152.044 46.6798 152.507 46.9465C152.969 47.2133 153.35 46.9999 153.35 46.4664C153.353 45.9329 152.976 45.2855 152.514 45.0152Z" fill="#E0E0E0"/>
<path d="M146.247 23.8766L146.222 32.185L145.216 32.7683L145.244 23.2969L146.247 23.8766Z" fill="#F0F0F0"/>
<path d="M157.095 38.4586L157.092 39.6252L145.216 32.7679L146.222 32.1846L157.095 38.4586Z" fill="#F5F5F5"/>
<path d="M143.996 33.4653L158.304 41.7275L158.34 29.4604L144.031 21.1982L143.996 33.4653ZM145.216 32.7682L145.244 23.2967L146.247 23.8764L157.116 30.154L157.091 38.4624L157.088 39.6255L145.216 32.7682Z" fill="#E0E0E0"/>
<path d="M144.032 21.1982L145.038 20.6113L159.347 28.8735L158.337 29.4568L144.032 21.1982Z" fill="#F5F5F5"/>
<path d="M159.346 28.874L159.311 41.1411L158.304 41.7243L158.336 29.4573L159.346 28.874Z" fill="#F0F0F0"/>
<path d="M149.7 27.0312L146.738 29.3644L146.73 31.6443L156.59 37.3385L156.597 35.0587L154.715 31.3242L153.029 32.6366L153.627 34.4896L152.759 32.8429L149.7 27.0312Z" fill="#E0E0E0"/>
<path d="M152.941 28.1803C152.478 27.9135 152.098 28.1269 152.098 28.6604C152.098 29.1939 152.471 29.8448 152.937 30.1116C153.399 30.3783 153.78 30.1649 153.78 29.6314C153.78 29.0979 153.403 28.447 152.941 28.1803Z" fill="#E0E0E0"/>
<path d="M116.09 14.3085L137.384 26.6217C137.761 26.8387 138.06 27.1517 138.266 27.5145C138.462 27.863 138.572 28.2578 138.572 28.674V50.0852C138.572 51.6715 136.772 53.0231 134.997 52.0094L126.092 46.7313L125.899 47.0407C125.892 47.0549 125.878 47.0585 125.867 47.0692V47.0727C125.86 47.0763 125.853 47.0834 125.846 47.0869C125.843 47.0869 125.843 47.0905 125.839 47.0905C125.49 47.3217 124.882 47.6489 124.747 47.7165L124.751 47.7058C124.687 47.7236 124.615 47.6987 124.591 47.6276L123.815 45.4295L113.707 39.721C112.971 39.3013 112.516 38.5153 112.516 37.6653V16.2291C112.512 14.5219 115.027 13.6967 116.09 14.3085Z" fill="url(#paint0_linear)"/>
<path opacity="0.2" d="M125.899 47.0406C125.892 47.0548 125.878 47.0584 125.867 47.069V47.0726C125.86 47.0761 125.853 47.0833 125.846 47.0868C125.843 47.0868 125.843 47.0904 125.839 47.0904C125.49 47.3216 124.882 47.6488 124.747 47.7164L124.751 47.7057C124.779 47.6986 124.808 47.6808 124.825 47.6523L125.576 46.4359L125.426 46.3506L126.088 46.7276L125.899 47.0406Z" fill="white"/>
<path opacity="0.4" d="M135.912 28.8528C135.759 28.5505 135.545 28.2767 135.278 28.0597C135.19 27.9886 135.093 27.921 134.99 27.8641L113.696 15.5508C113.17 15.2485 112.516 15.6291 112.516 16.2337C112.516 14.5265 115.03 13.7013 116.09 14.3095L137.384 26.6228C137.761 26.8397 138.06 27.1527 138.266 27.5155L135.912 28.8528Z" fill="white"/>
<path opacity="0.2" d="M136.178 51.3264V29.9115C136.178 29.8155 136.171 29.723 136.161 29.6305C136.125 29.3567 136.036 29.0935 135.912 28.8481L138.266 27.5107C138.462 27.8593 138.572 28.2541 138.572 28.6702V50.0815C138.572 51.6678 136.772 53.0193 134.998 52.0057C135.524 52.3116 136.178 51.931 136.178 51.3264Z" fill="white"/>
<path d="M63.0275 18.0539C62.7786 17.1718 60.9931 15.5001 59.2183 15.5357C59.1543 15.5357 58.8342 15.5677 58.7204 15.6317L24.2169 35.2611C23.6301 35.5955 23.1784 36.097 22.8903 36.6838C22.6733 37.1284 22.5488 37.6192 22.5488 38.1314V112.761C22.5488 114.664 24.7397 116.478 26.7991 115.603C26.8026 115.6 26.8062 115.596 26.8133 115.593C26.856 115.575 26.9022 115.564 26.9449 115.539L61.4484 95.8778C62.4798 95.291 63.1165 94.1955 63.1165 93.0111V18.4131C63.1165 18.2815 63.0809 18.1606 63.0275 18.0539Z" fill="#455A64"/>
<path d="M27.3647 46.0198C27.3647 45.4258 27.6848 44.8781 28.2006 44.5864L60.2357 26.362C60.787 26.049 61.4699 26.4473 61.4699 27.0804V87.2596C61.4699 87.8501 61.1498 88.4013 60.6376 88.693L28.6025 106.949C28.0512 107.262 27.3683 106.864 27.3683 106.231V46.0198H27.3647Z" fill="url(#paint1_linear)"/>
<path opacity="0.1" d="M27.3647 46.0198C27.3647 45.4258 27.6848 44.8781 28.2006 44.5864L60.2357 26.362C60.787 26.049 61.4699 26.4473 61.4699 27.0804V87.2596C61.4699 87.8501 61.1498 88.4013 60.6376 88.693L28.6025 106.949C28.0512 107.262 27.3683 106.864 27.3683 106.231V46.0198H27.3647Z" fill="black"/>
<path opacity="0.05" d="M27.3647 46.0198C27.3647 45.4258 27.6848 44.8781 28.2006 44.5864L60.2357 26.362C60.787 26.049 61.4699 26.4473 61.4699 27.0804V87.2596C61.4699 87.8501 61.1498 88.4013 60.6376 88.693L28.6025 106.949C28.0512 107.262 27.3683 106.864 27.3683 106.231V46.0198H27.3647Z" fill="white"/>
<path opacity="0.3" d="M22.5488 38.1312V112.761C22.5488 114.664 24.7397 116.478 26.7991 115.603C26.8026 115.599 26.8062 115.596 26.8133 115.592C26.2905 115.781 25.7107 115.404 25.7107 114.821V40.194C25.7107 39.5325 25.9135 38.903 26.2691 38.373L22.8903 36.6836C22.6733 37.1282 22.5488 37.619 22.5488 38.1312Z" fill="black"/>
<path opacity="0.1" d="M59.2182 15.5357C59.1542 15.5357 58.8341 15.5677 58.7203 15.6317L24.2168 35.2611C23.6299 35.5955 23.1782 36.0969 22.8901 36.6838L26.269 38.3732C26.55 37.95 26.9234 37.5872 27.3787 37.3276L61.8786 17.6982C62.3125 17.4492 62.8247 17.6519 63.0238 18.0574L63.0274 18.0539C62.7784 17.1718 60.993 15.5001 59.2182 15.5357Z" fill="white"/>
<path d="M48.6652 30.0186C48.907 29.8799 49.1098 29.9866 49.1098 30.264C49.1098 30.5414 48.9106 30.8864 48.6687 31.0287L41.9004 34.9375C41.6585 35.0762 41.4629 34.9589 41.4629 34.6814C41.4629 34.404 41.655 34.0661 41.9004 33.9274L48.6652 30.0186Z" fill="#263238"/>
<path d="M40.1575 34.931C40.3993 34.7922 40.5949 34.9025 40.5949 35.1799C40.5949 35.4573 40.4029 35.8023 40.1575 35.9411C39.9156 36.0798 39.7129 35.966 39.7129 35.6885C39.7164 35.4111 39.9156 35.0732 40.1575 34.931Z" fill="#263238"/>
<path d="M44.4895 29.4494C44.9732 29.1684 45.3644 29.3925 45.3644 29.9473C45.3644 30.5022 44.9767 31.1886 44.493 31.4661C44.0093 31.747 43.6074 31.5159 43.6074 30.961C43.6074 30.4097 44.0058 29.7304 44.4895 29.4494Z" fill="#263238"/>
<path d="M44.4934 99.7077C45.4786 99.1387 46.2753 99.5904 46.2789 100.725C46.2824 101.86 45.4928 103.25 44.5041 103.823C43.5189 104.392 42.7008 103.926 42.6973 102.795C42.6973 101.66 43.5082 100.277 44.4934 99.7077Z" fill="#263238"/>
<path d="M61.3598 25.416L73.0116 35.0867L68.7649 37.5408L57.1167 27.8701L61.3598 25.416Z" fill="url(#paint2_linear)"/>
<path d="M52.8697 30.3242L64.5179 39.9913L60.2712 42.4454L48.623 32.7783L52.8697 30.3242Z" fill="url(#paint3_linear)"/>
<path d="M48.623 32.7783L60.2712 42.4454L56.0245 44.8995L44.3799 35.2289L48.623 32.7783Z" fill="white"/>
<path d="M57.1163 27.8701L68.7645 37.5408L64.5178 39.9913L52.8696 30.3242L57.1163 27.8701Z" fill="white"/>
<path d="M35.8902 40.1367L47.5313 49.8038L43.2846 52.2579L31.6436 42.5908L35.8902 40.1367Z" fill="url(#paint4_linear)"/>
<path d="M44.38 35.2285L56.0246 44.8992L51.7779 47.3497L40.1333 37.6826L44.38 35.2285Z" fill="url(#paint5_linear)"/>
<path d="M27.3149 45.0912L31.6434 42.5908L43.2845 52.2579L38.9453 54.7618L27.3149 45.0912Z" fill="white"/>
<path d="M40.1333 37.6836L51.7779 47.3507L47.5312 49.8048L35.8901 40.1377L40.1333 37.6836Z" fill="white"/>
<path d="M73.0113 35.0869L68.7646 37.541C68.7646 38.8001 70.1304 39.5897 71.2223 38.9602C72.3285 38.3199 73.0113 37.1391 73.0113 35.8587V35.0869Z" fill="url(#paint6_linear)"/>
<path d="M68.7648 37.541L64.5181 39.9951C64.5181 41.2542 65.8838 42.0438 66.9757 41.4143C68.0819 40.774 68.7648 39.5932 68.7648 38.3128V37.541Z" fill="#E0E0E0"/>
<path d="M64.5182 39.9912L60.2715 42.4453C60.2715 43.7044 61.6372 44.494 62.7292 43.8644C63.8353 43.2242 64.5182 42.0434 64.5182 40.763V39.9912Z" fill="url(#paint7_linear)"/>
<path d="M60.2711 42.4453L56.0244 44.8994C56.0244 46.1585 57.3902 46.9481 58.4821 46.3185C59.5882 45.6783 60.2711 44.4975 60.2711 43.2171V42.4453Z" fill="#E0E0E0"/>
<path d="M56.0245 44.8994L51.7778 47.3535C51.7778 48.6126 53.1436 49.4022 54.2355 48.7727C55.3416 48.1324 56.0245 46.9516 56.0245 45.6712V44.8994Z" fill="url(#paint8_linear)"/>
<path d="M51.7779 47.3506L47.5312 49.8047C47.5312 51.0638 48.897 51.8534 49.9889 51.2238C51.0951 50.5836 51.7779 49.4028 51.7779 48.1224V47.3506Z" fill="#E0E0E0"/>
<path d="M47.5309 49.8047L43.2842 52.2588C43.2842 53.5179 44.65 54.3075 45.7419 53.6779C46.848 53.0377 47.5309 51.8569 47.5309 50.5765V49.8047Z" fill="url(#paint9_linear)"/>
<path opacity="0.2" d="M73.0113 35.0869L68.7646 37.541C68.7646 38.8001 70.1304 39.5897 71.2223 38.9602C72.3285 38.3199 73.0113 37.1391 73.0113 35.8587V35.0869Z" fill="black"/>
<path opacity="0.2" d="M64.5182 39.9912L60.2715 42.4453C60.2715 43.7044 61.6372 44.494 62.7292 43.8644C63.8353 43.2242 64.5182 42.0434 64.5182 40.763V39.9912Z" fill="black"/>
<path opacity="0.2" d="M56.0245 44.8994L51.7778 47.3535C51.7778 48.6126 53.1436 49.4022 54.2355 48.7727C55.3416 48.1324 56.0245 46.9516 56.0245 45.6712V44.8994Z" fill="black"/>
<path opacity="0.2" d="M47.5309 49.8047L43.2842 52.2588C43.2842 53.5179 44.65 54.3075 45.7419 53.6779C46.848 53.0377 47.5309 51.8569 47.5309 50.5765V49.8047Z" fill="black"/>
<path d="M43.2845 52.2588L38.9453 54.7663C38.9453 56.0253 40.3111 56.8149 41.403 56.1854C42.5696 55.5132 43.2845 54.2683 43.2845 52.9239V52.2588Z" fill="#E0E0E0"/>
<path d="M48.2348 64.7773C47.1322 64.8983 45.866 65.2504 44.6283 65.8906C43.3906 66.5272 42.1884 67.4449 41.2103 68.5723C40.2322 69.6998 39.4889 71.0193 39.0336 72.3353C38.5748 73.6513 38.4006 74.953 38.4361 76.0627C38.6922 74.9851 39.0728 73.7829 39.6418 72.5843C40.2073 71.3892 40.9614 70.2013 41.8719 69.1485C42.786 68.0993 43.8565 67.1852 44.9591 66.4597C46.0652 65.727 47.2034 65.1828 48.2348 64.7773Z" fill="white"/>
<path d="M44.913 83.3971C44.287 83.3864 43.5828 83.2868 42.8857 83.045C42.185 82.8067 41.495 82.4225 40.9117 81.9139C40.332 81.4018 39.8625 80.7651 39.5317 80.1036C39.2009 79.442 39.0089 78.7556 38.9164 78.1367C38.8453 78.7556 38.9128 79.506 39.1903 80.2494C39.4641 80.9927 39.9407 81.7219 40.5845 82.2838C41.2247 82.8458 42.0107 83.2264 42.7825 83.4006C43.5543 83.5785 44.3048 83.55 44.913 83.3971Z" fill="white"/>
<path d="M50.4259 71.9551C50.4864 72.8122 50.4935 73.7903 50.3832 74.8147C50.273 75.839 50.0489 76.906 49.7004 77.9339C49.3518 78.9618 48.8823 79.947 48.3453 80.8255C47.8118 81.7075 47.2107 82.4758 46.6416 83.1195C47.3565 82.6465 48.1141 81.9672 48.7649 81.1136C49.4194 80.26 49.9742 79.2392 50.3441 78.1508C50.7105 77.0625 50.8954 75.9137 50.8918 74.8396C50.8918 73.7654 50.7069 72.7696 50.4259 71.9551Z" fill="white"/>
<path d="M39.2722 68.0322C38.5147 68.7471 37.7642 69.7323 37.1987 70.9131C36.6296 72.0904 36.249 73.4633 36.1495 74.8646C36.0534 76.266 36.2384 77.678 36.6403 78.9228C37.0351 80.1712 37.6433 81.2489 38.2941 82.0634C37.878 81.1066 37.4868 79.9863 37.2414 78.7628C36.9924 77.5428 36.8857 76.2233 36.9782 74.918C37.0706 73.6127 37.3587 72.3216 37.7749 71.1479C38.1874 69.9777 38.7316 68.9214 39.2722 68.0322Z" fill="white"/>
<path d="M52.8624 68.4521C52.7984 67.6127 52.4783 66.6346 51.8559 65.7597C51.2406 64.8812 50.323 64.1129 49.2453 63.6754C48.1676 63.238 46.9725 63.1526 45.9198 63.3553C44.8634 63.551 43.9529 64.0275 43.3198 64.586C44.0774 64.2161 44.995 63.928 45.9873 63.8533C46.9761 63.775 48.036 63.9102 48.9927 64.2979C49.9495 64.6891 50.8031 65.3293 51.4575 66.0727C52.1191 66.8124 52.5743 67.6554 52.8624 68.4521Z" fill="white"/>
<path d="M68.1139 57.3164C70.4507 57.0781 72.5776 58.6822 72.9901 60.994L74.644 70.2485L84.994 77.4864L82.6821 80.2998L72.8372 75.1283C71.6671 74.513 70.7957 73.4531 70.4187 72.1834L67.2461 61.4813L68.1139 57.3164Z" fill="#FFA8A7"/>
<path d="M71.9548 67.2397C72.8689 66.7631 73.6051 65.9735 74.0461 65.0452L73.1178 60.8056C72.6306 58.5756 70.5464 57.0676 68.2736 57.2987L68.1136 57.3165L67.2422 61.4814L68.6186 67.6274C69.7319 67.8977 70.9411 67.7696 71.9548 67.2397Z" fill="#455A64"/>
<path d="M71.9548 67.2394C70.9376 67.7694 69.7283 67.8974 68.6187 67.6235L68.9565 69.1387C70.2441 69.4232 73.5304 69.3307 74.3876 66.6134L74.0426 65.0449C73.6051 65.9768 72.8689 66.7664 71.9548 67.2394Z" fill="#455A64"/>
<path opacity="0.2" d="M71.9548 67.2397C72.8689 66.7631 73.6051 65.9735 74.0461 65.0452L73.1178 60.8056C72.6306 58.5756 70.5464 57.0676 68.2736 57.2987L68.1136 57.3165L67.2422 61.4814L68.6186 67.6274C69.7319 67.8977 70.9411 67.7696 71.9548 67.2397Z" fill="white"/>
<path opacity="0.5" d="M71.9548 67.2394C70.9376 67.7694 69.7283 67.8974 68.6187 67.6235L68.9565 69.1387C70.2441 69.4232 73.5304 69.3307 74.3876 66.6134L74.0426 65.0449C73.6051 65.9768 72.8689 66.7664 71.9548 67.2394Z" fill="white"/>
<path d="M70.4077 61.2857C70.4077 61.2857 69.9986 58.138 68.1172 57.3164C68.1172 57.3164 63.6251 58.6644 59.8941 60.0764C58.0766 60.7664 56.9527 61.2288 55.5727 61.9152C54.7262 62.6479 52.297 64.8281 51.1553 65.4185C50.6004 65.7031 49.9958 65.8667 49.3805 65.9521C49.3769 65.9521 49.3734 65.9521 49.3734 65.9521C48.6869 66.0445 47.9436 66.3113 47.1647 66.7594C43.7431 68.7369 40.9796 73.5243 40.9903 77.4544C40.9974 80.033 42.1995 81.5908 43.9886 81.8113C43.9886 81.8149 43.9886 81.8185 43.9886 81.822C44.0135 81.822 44.0384 81.822 44.0632 81.822C44.3336 81.8505 44.6181 81.8469 44.9133 81.8149C48.0254 81.7864 53.0154 81.7616 54.9787 81.1996C64.1301 78.5178 71.3289 71.9024 70.4077 61.2857Z" fill="#455A64"/>
<path d="M61.6796 59.9943L63.0241 57.5615L68.416 61.1965C67.7047 62.1532 66.9933 63.1064 66.282 64.0632C65.3572 64.4615 64.3045 64.5967 63.3868 64.1805C62.4692 63.7644 61.7401 62.9464 61.4307 61.9896C61.2173 61.3209 61.3524 60.6487 61.6796 59.9943Z" fill="#FFA8A7"/>
<path opacity="0.2" d="M63.5293 57.8994C63.5293 60.8266 65.8589 62.203 67.2816 62.7223L68.4162 61.1965L63.5293 57.8994Z" fill="black"/>
<path d="M61.0927 54.9763C60.8935 53.8061 60.6908 52.6039 60.9184 51.4374C61.1461 50.2708 61.8965 49.1326 63.0347 48.7912C63.4437 47.806 64.4289 47.0093 65.4425 46.6821C66.4562 46.3548 67.541 46.3228 68.6044 46.2979C69.7817 46.2695 70.9732 46.2481 72.1256 46.4936C73.2779 46.739 74.4054 47.2796 75.1416 48.2043C75.9881 49.2678 76.2193 50.7225 76.0166 52.0669C75.8139 53.4113 75.2199 54.6633 74.5548 55.8477C72.2927 56.0077 69.988 56.2673 67.7224 56.4274C66.5665 56.5092 65.4034 56.591 64.2546 56.4558C63.1094 56.3242 61.9926 55.7054 61.0927 54.9763Z" fill="#263238"/>
<path d="M74.9425 49.5525C75.5258 53.0132 75.1346 56.6303 73.8328 59.8847C73.5305 60.6423 73.1393 61.4248 72.4279 61.8302C71.6846 62.2535 70.767 62.1646 69.9205 62.0365C68.5583 61.8302 67.1889 61.5528 65.9619 60.9233C64.7384 60.2937 63.6607 59.2765 63.2232 57.9712C62.3234 58.1882 61.3809 57.772 60.8225 57.0322C60.2641 56.2925 60.0649 55.3393 60.0435 54.411C60.0293 53.817 60.1538 53.1163 60.6837 52.8567C61.1781 52.6148 61.7756 52.8851 62.2025 53.2337C62.9031 53.8028 63.426 54.5852 63.682 55.4531C64.0733 54.0091 64.685 52.6148 65.0763 51.1708C65.2292 50.6017 65.4213 49.9829 65.9156 49.6663C66.5203 49.2787 67.3134 49.5027 68.0105 49.6735C70.1481 50.2034 72.8441 50.207 74.9425 49.5525Z" fill="#FFA8A7"/>
<path d="M70.7314 53.9375L72.4208 56.7793L70.4077 57.1563L70.7314 53.9375Z" fill="#F28F8F"/>
<path d="M68.4656 58.1387C68.9742 58.3876 69.4864 58.633 69.995 58.882C69.7709 59.2306 69.2125 59.3799 68.8355 59.2128C68.4585 59.0421 68.3518 58.537 68.4656 58.1387Z" fill="#F28F8F"/>
<path opacity="0.3" d="M68.4656 58.1387C68.9742 58.3876 69.4864 58.633 69.995 58.882C69.7709 59.2306 69.2125 59.3799 68.8355 59.2128C68.4585 59.0421 68.3518 58.537 68.4656 58.1387Z" fill="black"/>
<path d="M69.3658 59.2624C69.1809 59.2944 68.9924 59.2838 68.8359 59.2126C68.5407 59.081 68.4126 58.7396 68.4268 58.4053C68.6438 58.4053 68.8608 58.4764 69.0315 58.6151C69.2235 58.7752 69.3409 59.0135 69.3658 59.2624Z" fill="#F28F8F"/>
<path d="M67.815 54.0516C67.783 54.3681 68.0141 54.6526 68.3307 54.6847C68.6472 54.7167 68.9318 54.4855 68.9638 54.1689C68.9958 53.8524 68.7646 53.5678 68.4445 53.5358C68.1315 53.5003 67.847 53.7315 67.815 54.0516Z" fill="#263238"/>
<path d="M72.6665 54.3507C72.6345 54.6673 72.8657 54.9518 73.1858 54.9838C73.5024 55.0158 73.7869 54.7846 73.8189 54.4681C73.8509 54.1515 73.6197 53.867 73.2996 53.835C72.9795 53.803 72.6985 54.0342 72.6665 54.3507Z" fill="#263238"/>
<path d="M73.4556 52.1162C73.8504 52.4541 74.2452 52.7884 74.6435 53.1263C74.8 52.8346 74.7182 52.4327 74.487 52.198C74.2523 51.9668 73.7437 51.9597 73.4556 52.1162Z" fill="#263238"/>
<path d="M68.7253 52.0385C68.2701 52.2911 67.8148 52.54 67.3595 52.7926C67.2635 52.476 67.4236 52.0955 67.701 51.9141C67.9749 51.7327 68.4728 51.8287 68.7253 52.0385Z" fill="#263238"/>
<path d="M76.0235 50.7225C71.2042 51.5156 65.8976 51.5192 61.0747 50.7332C61.3059 44.6797 64.0268 42.7021 68.7216 42.7021C73.4164 42.7021 76.0591 45.1954 76.0235 50.7225Z" fill="#455A64"/>
<path d="M76.0235 50.7228C76.0378 48.4039 75.5754 46.6291 74.6969 45.338L72.7336 44.7867C71.8124 44.5271 70.845 44.4773 69.9025 44.6338L68.0281 44.9468C66.7192 45.1673 65.7091 46.2272 65.5562 47.5467L65.1294 51.1959C68.7679 51.4555 72.5202 51.299 76.0235 50.7228Z" fill="#455A64"/>
<path opacity="0.29" d="M76.0235 50.7228C76.0378 48.4039 75.5754 46.6291 74.6969 45.338L72.7336 44.7867C71.8124 44.5271 70.845 44.4773 69.9025 44.6338L68.0281 44.9468C66.7192 45.1673 65.7091 46.2272 65.5562 47.5467L65.1294 51.1959C68.7679 51.4555 72.5202 51.299 76.0235 50.7228Z" fill="white"/>
<path d="M76.61 45.6328H75.7422C75.4612 45.6328 75.1838 45.647 74.9064 45.6648C72.3705 45.8498 69.9555 46.867 68.0491 48.5742L65.1255 51.1955C68.7675 51.4516 72.5199 51.2986 76.0196 50.7224L77.9225 48.4284C78.8472 47.3151 78.0541 45.6328 76.61 45.6328Z" fill="#455A64"/>
<path opacity="0.2" d="M76.61 45.6328H75.7422C75.4612 45.6328 75.1838 45.647 74.9064 45.6648C72.3705 45.8498 69.9555 46.867 68.0491 48.5742L65.1255 51.1955C68.7675 51.4516 72.5199 51.2986 76.0196 50.7224L77.9225 48.4284C78.8472 47.3151 78.0541 45.6328 76.61 45.6328Z" fill="black"/>
<path d="M91.6421 77.9518L78.3864 85.6592L65.0381 77.9518L78.2974 70.248L91.6421 77.9518Z" fill="url(#paint10_linear)"/>
<g opacity="0.3">
<path opacity="0.3" d="M91.6421 77.9518L78.3864 85.6592L65.0381 77.9518L78.2974 70.248L91.6421 77.9518Z" fill="white"/>
</g>
<path d="M91.6416 77.9521L91.606 91.4427L78.3467 99.1465L78.3858 85.6595L91.6416 77.9521Z" fill="url(#paint11_linear)"/>
<g opacity="0.1">
<path opacity="0.1" d="M91.6416 77.9521L91.606 91.4427L78.3467 99.1465L78.3858 85.6595L91.6416 77.9521Z" fill="white"/>
</g>
<path d="M78.3858 85.6595L78.3467 99.1465L65.002 91.4427L65.0375 77.9521L78.3858 85.6595Z" fill="url(#paint12_linear)"/>
<path d="M80.694 76.9667L85.1826 74.2245L82.8921 72.9014L78.3857 75.5867L80.694 76.9667Z" fill="#E0E0E0"/>
<path d="M80.6941 76.9664L78.3858 75.5864L73.8047 72.8584L71.5249 74.185L76.0739 76.9664L78.3858 78.3784L84.489 82.1094L86.9361 80.6867L80.6941 76.9664Z" fill="white"/>
<path d="M76.0742 76.9668L69.8037 80.7049L72.2614 82.124L78.386 78.3788L76.0742 76.9668Z" fill="#E0E0E0"/>
<path d="M86.9363 80.6865L84.4893 82.1092L84.507 82.1234L84.5462 95.5428L87.0216 94.1059L86.9825 80.715L86.9363 80.6865Z" fill="#E0E0E0"/>
<path d="M72.2612 82.1232L69.8035 80.7041L69.7857 80.7148L69.7466 94.1804L72.222 95.6102L72.2612 82.1232Z" fill="white"/>
<path opacity="0.2" d="M72.2612 82.1232L69.8035 80.7041L69.7857 80.7148L69.7466 94.1804L72.222 95.6102L72.2612 82.1232Z" fill="black"/>
<path d="M78.3787 81.043L75.6045 82.7395L78.3787 84.3436L81.1458 82.736L78.3787 81.043Z" fill="white"/>
<path d="M52.1299 80.5766C52.1299 80.5766 53.1649 65.514 53.3783 64.5822C54.2106 61.0006 59.4034 61.2567 59.8978 64.8987C60.1005 66.3854 57.7282 80.822 57.7282 80.822L66.3211 89.913L68.0639 91.5099L69.6111 91.1934L73.1464 91.5277C73.3349 91.5455 73.4914 91.6842 73.5306 91.8727C73.5768 92.1003 73.4345 92.3279 73.2104 92.3813L70.8773 92.9504L72.5631 94.1027C72.7979 94.2628 73.0682 94.3766 73.3492 94.43L75.9918 94.9279C76.2336 94.9741 76.4044 95.1911 76.3866 95.4365C76.3759 95.6286 76.2514 95.7957 76.07 95.8633L74.6509 96.3932C72.7908 97.0868 70.7208 96.941 68.978 95.9878L65.8979 94.3055C65.4533 94.0636 65.0301 93.7755 64.6388 93.4519L53.6664 84.3645C52.5425 83.4469 51.9663 82.0171 52.1299 80.5766Z" fill="#FFA8A7"/>
<path d="M59.7591 74.804L60.8581 66.6343C61.1782 64.2549 59.4781 62.0782 57.0916 61.815C54.7406 61.5518 52.6244 63.2484 52.3683 65.5993L51.4507 73.9469C52.6457 74.6298 53.9759 75.0779 55.3453 75.2415C56.8248 75.4158 58.34 75.2629 59.7591 74.804Z" fill="#455A64"/>
<path opacity="0.2" d="M59.7591 74.804L60.8581 66.6343C61.1782 64.2549 59.4781 62.0782 57.0916 61.815C54.7406 61.5518 52.6244 63.2484 52.3683 65.5993L51.4507 73.9469C52.6457 74.6298 53.9759 75.0779 55.3453 75.2415C56.8248 75.4158 58.34 75.2629 59.7591 74.804Z" fill="white"/>
<path d="M55.3451 75.238C53.9794 75.0744 52.6492 74.6262 51.4506 73.9434L51.2407 75.8675C54.9361 78.7058 59.4674 76.9559 59.4674 76.9559L59.7554 74.8041C58.3399 75.2629 56.8247 75.4158 55.3451 75.238Z" fill="#455A64"/>
<path opacity="0.5" d="M55.3451 75.238C53.9794 75.0744 52.6492 74.6262 51.4506 73.9434L51.2407 75.8675C54.9361 78.7058 59.4674 76.9559 59.4674 76.9559L59.7554 74.8041C58.3399 75.2629 56.8247 75.4158 55.3451 75.238Z" fill="white"/>
<path d="M151.458 102.749L157.227 102.916L162.996 102.749C163.245 106.644 162.484 110.613 161.434 112.551H161.431C161.242 112.978 160.865 113.38 160.289 113.714C158.586 114.696 155.836 114.696 154.147 113.714C153.56 113.373 153.183 112.96 153.005 112.523C151.963 110.574 151.209 106.626 151.458 102.749Z" fill="white"/>
<path d="M153.162 100.387C150.904 101.692 150.89 103.809 153.134 105.11C155.378 106.416 159.031 106.416 161.289 105.11C163.548 103.805 163.562 101.689 161.314 100.387C159.073 99.0819 155.421 99.0819 153.162 100.387Z" fill="#EBEBEB"/>
<path d="M154.054 100.906C152.29 101.924 152.283 103.574 154.033 104.591C155.783 105.608 158.635 105.608 160.396 104.591C162.16 103.574 162.167 101.924 160.417 100.906C158.667 99.8893 155.818 99.8893 154.054 100.906Z" fill="#E0E0E0"/>
<g opacity="0.15">
<path opacity="0.15" d="M154.054 100.906C152.29 101.924 152.283 103.574 154.033 104.591C155.783 105.608 158.635 105.608 160.396 104.591C162.16 103.574 162.167 101.924 160.417 100.906C158.667 99.8893 155.818 99.8893 154.054 100.906Z" fill="black"/>
</g>
<path d="M160.168 90.9443C161.107 89.7777 162.196 88.7321 163.056 87.5086C163.643 86.6727 164.134 85.6484 163.889 84.6596C163.661 83.742 162.8 83.0556 161.868 82.8813C160.937 82.707 159.962 82.9844 159.158 83.4859C158.354 83.9874 157.7 84.6952 157.11 85.435C153.884 89.4861 152.312 94.8176 152.824 99.9712C152.884 100.562 152.98 101.184 153.357 101.643C153.763 102.134 154.47 102.351 155.082 102.169C156.654 101.703 156.444 99.58 156.701 98.3316C157.053 96.6208 157.664 94.9634 158.504 93.4305C158.984 92.5555 159.542 91.7232 160.168 90.9443Z" fill="#C8CFD5"/>
<path opacity="0.2" d="M160.168 90.9443C161.107 89.7777 162.196 88.7321 163.056 87.5086C163.643 86.6727 164.134 85.6484 163.889 84.6596C163.661 83.742 162.8 83.0556 161.868 82.8813C160.937 82.707 159.962 82.9844 159.158 83.4859C158.354 83.9874 157.7 84.6952 157.11 85.435C153.884 89.4861 152.312 94.8176 152.824 99.9712C152.884 100.562 152.98 101.184 153.357 101.643C153.763 102.134 154.47 102.351 155.082 102.169C156.654 101.703 156.444 99.58 156.701 98.3316C157.053 96.6208 157.664 94.9634 158.504 93.4305C158.984 92.5555 159.542 91.7232 160.168 90.9443Z" fill="white"/>
<path d="M154.983 100.587C155.043 100.576 155.089 100.523 155.093 100.459C155.203 97.9369 156.021 89.3262 161.957 84.4428C162.014 84.393 162.025 84.3077 161.975 84.2508C161.925 84.1939 161.84 84.1832 161.783 84.233C155.762 89.191 154.933 97.8978 154.819 100.448C154.815 100.523 154.876 100.587 154.951 100.59C154.961 100.59 154.972 100.59 154.983 100.587Z" fill="#F0F0F0"/>
<path d="M154.115 100.86C154.296 101.849 155.146 103.076 156.043 103.532C156.932 103.983 157.963 104.104 158.959 104.019C159.973 103.933 160.954 103.642 161.918 103.318C162.395 103.158 162.921 102.941 162.974 102.354C163.003 102.045 162.861 101.743 162.637 101.526C162.544 101.433 162.441 101.344 162.331 101.262C162.107 101.092 162.213 100.736 162.494 100.715C162.779 100.697 163.06 100.665 163.337 100.612C163.981 100.487 164.614 100.242 165.109 99.8113C165.478 99.4876 165.759 99.0644 165.927 98.5984C166.069 98.2036 166.112 97.7057 165.809 97.4105C165.638 97.2398 165.389 97.1757 165.155 97.1259C164.945 97.0797 164.732 97.0406 164.522 97.0086C164.241 96.9659 164.194 96.5818 164.458 96.4715L165.354 96.0981C165.603 95.9949 165.863 95.8847 166.033 95.6748C166.307 95.344 166.289 94.8639 166.204 94.4406C166.094 93.8787 165.902 93.3416 165.77 92.7832C165.638 92.2284 165.567 91.6415 165.71 91.0902C164.038 90.9195 162.324 91.0013 160.698 91.4246C160.215 91.5526 159.724 91.7091 159.329 92.0221C158.77 92.4702 158.625 93.1389 158.685 93.8645C158.696 94.0032 158.507 94.053 158.44 93.932L157.867 92.8793C157.696 92.5627 157.305 92.4418 156.978 92.5947C156.484 92.8259 156.043 93.1958 155.669 93.6226C155.267 94.0814 155.061 94.6861 155.111 95.2978C155.178 96.123 155.321 96.9552 155.527 97.7555C155.58 97.9653 155.345 98.1218 155.171 97.9973L155.143 97.976C154.986 97.8622 154.794 97.7946 154.602 97.8195C154.097 97.8835 153.969 98.3957 153.933 98.8296C153.884 99.4591 153.997 100.202 154.115 100.86Z" fill="#ECEFF1"/>
<path opacity="0.2" d="M154.115 100.86C154.296 101.849 155.146 103.076 156.043 103.532C156.932 103.983 157.963 104.104 158.959 104.019C159.973 103.933 160.954 103.642 161.918 103.318C162.395 103.158 162.921 102.941 162.974 102.354C163.003 102.045 162.861 101.743 162.637 101.526C162.544 101.433 162.441 101.344 162.331 101.262C162.107 101.092 162.213 100.736 162.494 100.715C162.779 100.697 163.06 100.665 163.337 100.612C163.981 100.487 164.614 100.242 165.109 99.8113C165.478 99.4876 165.759 99.0644 165.927 98.5984C166.069 98.2036 166.112 97.7057 165.809 97.4105C165.638 97.2398 165.389 97.1757 165.155 97.1259C164.945 97.0797 164.732 97.0406 164.522 97.0086C164.241 96.9659 164.194 96.5818 164.458 96.4715L165.354 96.0981C165.603 95.9949 165.863 95.8847 166.033 95.6748C166.307 95.344 166.289 94.8639 166.204 94.4406C166.094 93.8787 165.902 93.3416 165.77 92.7832C165.638 92.2284 165.567 91.6415 165.71 91.0902C164.038 90.9195 162.324 91.0013 160.698 91.4246C160.215 91.5526 159.724 91.7091 159.329 92.0221C158.77 92.4702 158.625 93.1389 158.685 93.8645C158.696 94.0032 158.507 94.053 158.44 93.932L157.867 92.8793C157.696 92.5627 157.305 92.4418 156.978 92.5947C156.484 92.8259 156.043 93.1958 155.669 93.6226C155.267 94.0814 155.061 94.6861 155.111 95.2978C155.178 96.123 155.321 96.9552 155.527 97.7555C155.58 97.9653 155.345 98.1218 155.171 97.9973L155.143 97.976C154.986 97.8622 154.794 97.7946 154.602 97.8195C154.097 97.8835 153.969 98.3957 153.933 98.8296C153.884 99.4591 153.997 100.202 154.115 100.86Z" fill="black"/>
<path opacity="0.2" d="M154.115 100.86C154.296 101.849 155.146 103.076 156.043 103.532C156.932 103.983 157.963 104.104 158.959 104.019C159.973 103.933 160.954 103.642 161.918 103.318C162.395 103.158 162.921 102.941 162.974 102.354C163.003 102.045 162.861 101.743 162.637 101.526C162.544 101.433 162.441 101.344 162.331 101.262C162.107 101.092 162.213 100.736 162.494 100.715C162.779 100.697 163.06 100.665 163.337 100.612C163.981 100.487 164.614 100.242 165.109 99.8113C165.478 99.4876 165.759 99.0644 165.927 98.5984C166.069 98.2036 166.112 97.7057 165.809 97.4105C165.638 97.2398 165.389 97.1757 165.155 97.1259C164.945 97.0797 164.732 97.0406 164.522 97.0086C164.241 96.9659 164.194 96.5818 164.458 96.4715L165.354 96.0981C165.603 95.9949 165.863 95.8847 166.033 95.6748C166.307 95.344 166.289 94.8639 166.204 94.4406C166.094 93.8787 165.902 93.3416 165.77 92.7832C165.638 92.2284 165.567 91.6415 165.71 91.0902C164.038 90.9195 162.324 91.0013 160.698 91.4246C160.215 91.5526 159.724 91.7091 159.329 92.0221C158.77 92.4702 158.625 93.1389 158.685 93.8645C158.696 94.0032 158.507 94.053 158.44 93.932L157.867 92.8793C157.696 92.5627 157.305 92.4418 156.978 92.5947C156.484 92.8259 156.043 93.1958 155.669 93.6226C155.267 94.0814 155.061 94.6861 155.111 95.2978C155.178 96.123 155.321 96.9552 155.527 97.7555C155.58 97.9653 155.345 98.1218 155.171 97.9973L155.143 97.976C154.986 97.8622 154.794 97.7946 154.602 97.8195C154.097 97.8835 153.969 98.3957 153.933 98.8296C153.884 99.4591 153.997 100.202 154.115 100.86Z" fill="white"/>
<path d="M156.775 103.396C156.782 103.36 157.127 101.685 158.123 99.4871C158.123 99.448 158.141 99.4124 158.169 99.384C158.201 99.3164 158.23 99.2488 158.265 99.1812C157.981 96.5564 156.939 94.7247 156.932 94.7069C156.892 94.6429 156.917 94.5575 156.981 94.5184C157.045 94.4829 157.131 94.5042 157.17 94.5682C157.181 94.586 158.137 96.2683 158.486 98.726C159.628 96.439 161.449 93.7608 164.258 91.8047C164.322 91.762 164.408 91.7762 164.45 91.8402C164.493 91.9043 164.479 91.9896 164.415 92.0323C161.516 94.0489 159.688 96.8445 158.575 99.167C160.84 98.0644 163.245 98.5019 163.351 98.5197C163.426 98.5339 163.476 98.6051 163.462 98.6798C163.451 98.7367 163.408 98.7793 163.355 98.79C163.337 98.7936 163.319 98.7936 163.302 98.79C163.277 98.7865 160.652 98.3099 158.383 99.576C157.394 101.749 157.053 103.41 157.045 103.446C157.035 103.503 156.988 103.545 156.939 103.552C156.921 103.556 156.903 103.556 156.885 103.552C156.807 103.542 156.757 103.467 156.775 103.396Z" fill="#F0F0F0"/>
<path d="M25.3338 114.536L18.7717 114.728L12.2096 114.536C11.9286 118.968 12.7929 123.485 13.9844 125.693H13.9879C14.2013 126.177 14.6317 126.636 15.2861 127.017C17.2245 128.133 20.3508 128.133 22.2786 127.017C22.9472 126.629 23.374 126.156 23.5768 125.661C24.7576 123.439 25.6147 118.946 25.3338 114.536Z" fill="white"/>
<path d="M23.396 111.847C25.9675 113.331 25.9817 115.738 23.428 117.225C20.8743 118.708 16.7165 118.708 14.1451 117.225C11.5736 115.742 11.5593 113.334 14.1166 111.847C16.6668 110.361 20.8245 110.361 23.396 111.847Z" fill="#EBEBEB"/>
<path d="M22.3781 112.438C24.384 113.597 24.3947 115.475 22.403 116.631C20.4112 117.791 17.1675 117.791 15.1615 116.631C13.1556 115.472 13.1449 113.594 15.1366 112.438C17.1284 111.278 20.3721 111.278 22.3781 112.438Z" fill="#E0E0E0"/>
<g opacity="0.15">
<path opacity="0.15" d="M22.3781 112.438C24.384 113.597 24.3947 115.475 22.403 116.631C20.4112 117.791 17.1675 117.791 15.1615 116.631C13.1556 115.472 13.1449 113.594 15.1366 112.438C17.1284 111.278 20.3721 111.278 22.3781 112.438Z" fill="black"/>
</g>
<path d="M29.5593 86.5273C14.767 91.3716 14.6354 101.266 17.968 108.312C18.8074 109.738 21.354 110.503 23.5698 101.739L19.6859 102.237L24.2136 99.9432L25.3908 96.4292L21.6172 96.7102L26.4081 94.6935C28.1722 89.3549 29.5593 86.5273 29.5593 86.5273Z" fill="#C8CFD5"/>
<path opacity="0.2" d="M29.5593 86.5273C14.767 91.3716 14.6354 101.266 17.968 108.312C18.8074 109.738 21.354 110.503 23.5698 101.739L19.6859 102.237L24.2136 99.9432L25.3908 96.4292L21.6172 96.7102L26.4081 94.6935C28.1722 89.3549 29.5593 86.5273 29.5593 86.5273Z" fill="black"/>
<path opacity="0.2" d="M29.5593 86.5273C14.767 91.3716 14.6354 101.266 17.968 108.312C18.8074 109.738 21.354 110.503 23.5698 101.739L19.6859 102.237L24.2136 99.9432L25.3908 96.4292L21.6172 96.7102L26.4081 94.6935C28.1722 89.3549 29.5593 86.5273 29.5593 86.5273Z" fill="white"/>
<path d="M25.3766 89.0029C17.5768 94.9248 16.8726 101.711 19.0742 108.796C18.2953 102.557 17.4523 96.2479 25.3766 89.0029Z" fill="white"/>
<path d="M4.50586 96.5781C19.0847 98.6303 20.856 107.824 18.9211 114.941C18.3734 116.41 16.1327 117.545 12.6116 109.752L16.3141 109.571L11.7153 108.187L10.0365 105.107L13.6003 104.741L8.80234 103.659C6.26998 98.9789 4.50586 96.5781 4.50586 96.5781Z" fill="#E0E4E7"/>
<path opacity="0.2" d="M4.50586 96.5781C19.0847 98.6303 20.856 107.824 18.9211 114.941C18.3734 116.41 16.1327 117.545 12.6116 109.752L16.3141 109.571L11.7153 108.187L10.0365 105.107L13.6003 104.741L8.80234 103.659C6.26998 98.9789 4.50586 96.5781 4.50586 96.5781Z" fill="white"/>
<path opacity="0.1" d="M4.50586 96.5781C19.0847 98.6303 20.856 107.824 18.9211 114.941C18.3734 116.41 16.1327 117.545 12.6116 109.752L16.3141 109.571L11.7153 108.187L10.0365 105.107L13.6003 104.741L8.80234 103.659C6.26998 98.9789 4.50586 96.5781 4.50586 96.5781Z" fill="black"/>
<path d="M8.81299 98.1895C17.061 102.408 18.8464 108.611 17.9715 115.578C17.662 109.635 17.3953 103.621 8.81299 98.1895Z" fill="white"/>
<path d="M33.8273 100.025C20.4577 100.242 17.8329 108.334 18.7789 114.964C19.1062 116.347 21.0019 117.624 25.0458 110.991L21.731 110.414L26.031 109.682L27.8876 107.096L24.7186 106.367L29.1645 105.929C31.9707 101.992 33.8273 100.025 33.8273 100.025Z" fill="#D4DADE"/>
<path d="M29.7656 100.992C21.859 103.87 19.5578 109.261 19.565 115.639C20.511 110.318 21.4216 104.926 29.7656 100.992Z" fill="white"/>
<path opacity="0.2" d="M33.8273 100.025C20.4577 100.242 17.8329 108.334 18.7789 114.964C19.1062 116.347 21.0019 117.624 25.0458 110.991L21.731 110.414L26.031 109.682L27.8876 107.096L24.7186 106.367L29.1645 105.929C31.9707 101.992 33.8273 100.025 33.8273 100.025Z" fill="white"/>
<path d="M110.947 86.6622C107.437 89.0985 103.481 90.788 100.551 94.053C95.0735 100.156 94.9454 109.98 99.249 116.962C103.549 123.943 111.548 128.14 119.693 129.101C128.236 130.107 137.206 127.746 143.907 122.354C150.611 116.962 154.876 108.532 154.872 99.9287C154.869 91.325 150.462 82.7569 143.256 78.0586C136.68 73.7692 127.233 72.5457 120.635 77.4539C117.299 79.9329 115.076 83.5963 111.751 86.0825C111.484 86.2816 111.217 86.4737 110.947 86.6622Z" fill="url(#paint13_linear)"/>
<path opacity="0.1" d="M112.377 122.431C112.384 122.374 112.394 122.314 112.402 122.257C112.96 118.345 116.008 115.304 119.888 114.557C123.267 113.91 126.536 112.665 129.481 110.883C131.576 109.617 133.557 108.062 135.908 107.376C138.077 106.743 140.78 106.839 142.836 107.778C140.859 105.704 137.473 104.79 134.766 105.729C136.64 102.862 138.287 99.7717 138.934 96.407C139.582 93.0424 139.123 89.3506 137.092 86.5906C135.371 84.2467 132.564 82.7315 129.659 82.5751C126.753 82.4186 123.804 83.6278 121.841 85.7725C119.831 87.9706 118.7 91.0649 117.381 93.7324C116.435 95.6495 115.453 97.6127 113.892 99.0745C111.534 101.28 108.144 102.073 105.701 104.186C102.93 106.576 101.735 110.403 101.721 114.062C101.714 116.534 102.176 118.964 102.795 121.364C105.601 124.096 109.072 126.155 112.818 127.493C112.249 125.899 112.145 124.117 112.377 122.431Z" fill="black"/>
<path d="M150.284 98.7512C150.142 91.4316 146.66 84.304 140.976 79.6909C137.498 76.8669 133.269 75.0494 128.866 74.3701C128.048 74.4519 127.24 74.5871 126.444 74.7756C131.555 75.0743 136.566 76.9594 140.56 80.2031C146.098 84.6952 149.484 91.6343 149.626 98.7619C149.783 106.768 145.867 114.931 139.148 120.596C133.884 125.035 126.888 127.98 119.202 129.036C119.366 129.058 119.529 129.083 119.693 129.1C120.383 129.182 121.077 129.239 121.774 129.275C128.602 127.952 134.788 125.135 139.575 121.098C146.439 115.311 150.444 106.957 150.284 98.7512Z" fill="white"/>
<path d="M109.275 128.319L110.154 130.062C111.399 128.913 111.623 127.985 111.623 127.985C111.221 126.562 110.751 125.114 110.52 124.41C110.399 125.392 109.731 126.235 109.45 127.191C109.339 127.561 109.293 127.938 109.275 128.319Z" fill="#37474F"/>
<path d="M109.318 130.105L110.158 130.062L109.279 128.319C109.251 128.91 109.3 129.511 109.318 130.105Z" fill="#263238"/>
<path d="M109.955 122.351C109.66 121.907 109.293 121.515 108.913 121.135C109.151 121.864 109.094 122.707 108.898 123.464C108.639 124.475 108.162 125.424 107.928 126.441C107.639 127.679 107.703 129.009 107.181 130.169C106.672 131.296 105.598 132.15 104.389 132.399C103.94 132.491 103.443 132.495 103.062 132.239C102.891 132.125 102.763 131.94 102.696 131.744C102.429 132.292 102.116 132.819 101.742 133.302C101.326 133.839 100.814 134.426 100.924 135.095C101.017 135.646 101.543 136.048 102.091 136.162C102.639 136.276 103.208 136.158 103.752 136.023C104.919 135.731 106.082 135.34 107.077 134.668C108.073 133.992 108.902 133.007 109.187 131.84C109.325 131.278 109.336 130.695 109.318 130.112C109.3 129.514 109.251 128.917 109.275 128.326C109.293 127.942 109.34 127.565 109.45 127.199C109.731 126.242 110.403 125.399 110.52 124.418C110.527 124.364 110.538 124.314 110.542 124.261C110.581 123.578 110.328 122.913 109.955 122.351Z" fill="#455A64"/>
<path opacity="0.1" d="M109.955 122.351C109.66 121.907 109.293 121.515 108.913 121.135C109.151 121.864 109.094 122.707 108.898 123.464C108.639 124.475 108.162 125.424 107.928 126.441C107.639 127.679 107.703 129.009 107.181 130.169C106.672 131.296 105.598 132.15 104.389 132.399C103.94 132.491 103.443 132.495 103.062 132.239C102.891 132.125 102.763 131.94 102.696 131.744C102.429 132.292 102.116 132.819 101.742 133.302C101.326 133.839 100.814 134.426 100.924 135.095C101.017 135.646 101.543 136.048 102.091 136.162C102.639 136.276 103.208 136.158 103.752 136.023C104.919 135.731 106.082 135.34 107.077 134.668C108.073 133.992 108.902 133.007 109.187 131.84C109.325 131.278 109.336 130.695 109.318 130.112C109.3 129.514 109.251 128.917 109.275 128.326C109.293 127.942 109.34 127.565 109.45 127.199C109.731 126.242 110.403 125.399 110.52 124.418C110.527 124.364 110.538 124.314 110.542 124.261C110.581 123.578 110.328 122.913 109.955 122.351Z" fill="black"/>
<path d="M104.389 132.395C105.601 132.149 106.672 131.292 107.181 130.165C107.703 129.005 107.639 127.675 107.927 126.437C108.162 125.42 108.639 124.474 108.898 123.46C109.094 122.703 109.155 121.863 108.913 121.131C108.813 121.031 108.714 120.932 108.61 120.832C107.109 121.611 105.402 122.248 104.036 123.243C104.019 124.993 104.001 126.754 103.702 128.479C103.507 129.603 103.183 130.713 102.688 131.733C102.752 131.929 102.881 132.114 103.055 132.228C103.439 132.491 103.937 132.487 104.389 132.395Z" fill="#AB6160"/>
<path d="M99.2918 127.777C99.0428 129.225 97.9331 132.173 97.9331 132.173C97.9331 132.173 103.133 132.383 103.247 132.145L104.776 129.783L99.2918 127.777Z" fill="#FBA9A8"/>
<path d="M114.856 93.3203L101.597 100.708C99.1319 102.08 97.8195 104.872 98.3352 107.647L100.91 121.507L98.8011 128.211C100.622 130.655 104.801 130.776 104.801 130.776C107.134 126.099 108.845 124.111 110.168 120.195C111.491 116.275 112.377 113.572 112.377 113.572L123.389 110.563C128.535 109.155 132.334 104.762 132.931 99.4592C133.12 97.7946 133.127 96.6565 133.127 96.6565L114.856 93.3203Z" fill="#455A64"/>
<path opacity="0.2" d="M113.956 97.6846C113.953 99.1499 114.49 100.612 115.439 101.725L107.085 106.943C105.712 107.803 104.694 109.126 104.221 110.677L100.91 121.507L103.898 109.447C104.243 108.059 105.114 106.861 106.331 106.11L113.97 101.412C113.081 99.2033 113.956 97.6846 113.956 97.6846Z" fill="black"/>
<path d="M100.753 138.896L100.878 140.845C102.475 140.276 103.047 139.511 103.047 139.511C103.236 138.042 103.375 136.527 103.439 135.791C102.944 136.645 101.995 137.157 101.362 137.925C101.113 138.22 100.921 138.547 100.753 138.896Z" fill="#37474F"/>
<path d="M100.092 140.553L100.878 140.845L100.754 138.896C100.501 139.425 100.309 139.995 100.092 140.553Z" fill="#263238"/>
<path d="M103.727 133.67C103.631 133.144 103.45 132.639 103.247 132.145C103.179 132.909 102.795 133.66 102.315 134.279C101.678 135.104 100.868 135.79 100.252 136.633C99.5017 137.657 99.0394 138.906 98.1004 139.767C97.1899 140.602 95.8668 140.965 94.654 140.716C94.2058 140.624 93.747 140.432 93.4945 140.047C93.3807 139.873 93.3344 139.656 93.3522 139.45C92.8934 139.848 92.399 140.208 91.862 140.506C91.268 140.837 90.5638 141.175 90.4073 141.833C90.2757 142.377 90.6029 142.953 91.0617 143.273C91.5205 143.594 92.0896 143.711 92.6444 143.8C93.8324 143.992 95.0523 144.088 96.2367 143.86C97.4175 143.633 98.5663 143.049 99.2883 142.089C99.6369 141.627 99.8752 141.097 100.089 140.553C100.306 139.998 100.498 139.425 100.754 138.895C100.921 138.55 101.113 138.223 101.358 137.924C101.995 137.156 102.941 136.644 103.435 135.79C103.46 135.744 103.492 135.701 103.517 135.655C103.82 135.047 103.848 134.335 103.727 133.67Z" fill="#455A64"/>
<path d="M94.6574 140.717C95.8702 140.966 97.1897 140.603 98.1038 139.767C99.0428 138.91 99.5051 137.658 100.256 136.634C100.874 135.791 101.682 135.108 102.318 134.279C102.799 133.66 103.183 132.91 103.25 132.145C103.197 132.014 103.144 131.882 103.09 131.754C101.404 131.878 99.5834 131.797 97.9366 132.174C97.2324 133.778 96.5246 135.389 95.5714 136.854C94.9526 137.811 94.2163 138.704 93.3592 139.451C93.3414 139.657 93.3876 139.877 93.5014 140.048C93.7504 140.432 94.2092 140.624 94.6574 140.717Z" fill="#FBA9A8"/>
<path d="M128.446 73.7332C130.608 68.7859 130.743 62.9849 128.816 57.9415C128.197 56.3268 127.322 54.7227 125.889 53.7553C124.057 52.5176 121.681 52.5354 119.469 52.5994C118.295 52.6314 117.096 52.6705 115.994 53.076C114.891 53.4814 113.988 54.3528 113.7 55.491C112.256 55.2207 110.794 56.3659 110.406 57.7815C110.015 59.197 110.527 60.7478 111.427 61.9108C112.327 63.0738 113.572 63.9132 114.827 64.6779C114.07 65.0763 113.508 65.9939 113.241 66.8084C112.974 67.6228 113.042 68.5369 113.419 69.3052C112.085 69.2696 110.726 70.2512 110.314 71.5174C109.901 72.7836 110.25 74.2312 111.064 75.2911C111.879 76.3474 113.102 77.0374 114.393 77.3753C115.684 77.7132 117.039 77.7167 118.37 77.5887C119.743 78.9189 122.257 78.8904 123.982 78.0653C125.696 77.2401 127.681 75.4831 128.446 73.7332Z" fill="#263238"/>
<path d="M116.158 70.3936L115.82 70.3971C113.561 70.422 110.702 71.9585 109.304 75.9029L103.876 86.4165L110.072 89.1622L113.462 79.2391L116.158 70.3936Z" fill="#FBA9A8"/>
<path d="M111.805 77.3715C111.371 78.6128 111.346 79.9536 111.278 81.2661C111.211 82.5785 111.058 84.1648 110.457 85.3349C109.799 84.8797 108.995 84.6449 108.198 84.6734C107.401 84.7018 106.615 84.997 105.993 85.495C105.545 85.8542 105.214 86.3521 104.986 86.907L110.076 89.1619L113.465 79.2387L115.13 73.7686C113.604 74.4692 112.359 75.7816 111.805 77.3715Z" fill="#AB6160"/>
<path d="M110.129 87.2675C109.674 86.0973 108.568 85.2011 107.326 85.0019C106.085 84.8027 104.677 85.45 103.876 86.4174C103.201 87.2355 103.307 88.3381 103.734 89.309C104.403 90.8313 106.266 91.7134 107.867 91.2688C109.467 90.8206 110.734 88.8147 110.129 87.2675Z" fill="#FBA9A8"/>
<path d="M116.726 70.2013C114.333 70.5818 112.853 76.6282 112.074 78.9259C111.27 81.2982 112.362 83.0196 113.579 84.4529C114.023 84.9793 114.23 85.6693 114.137 86.3522L111.623 95.6957C118.487 100.792 130 98.3205 133.119 96.6595C133.119 92.3915 132.045 89.1869 131.103 87.1987C130.192 85.2781 129.655 83.2046 129.584 81.0777L129.466 77.6454L130.295 71.7271L124.334 70.308L119.081 70.0732C119.081 70.0768 117.505 70.0768 116.726 70.2013Z" fill="url(#paint14_linear)"/>
<path opacity="0.4" d="M116.726 70.2013C114.333 70.5818 112.853 76.6282 112.074 78.9259C111.27 81.2982 112.362 83.0196 113.579 84.4529C114.023 84.9793 114.23 85.6693 114.137 86.3522L111.623 95.6957C118.487 100.792 130 98.3205 133.119 96.6595C133.119 92.3915 132.045 89.1869 131.103 87.1987C130.192 85.2781 129.655 83.2046 129.584 81.0777L129.466 77.6454L130.295 71.7271L124.334 70.308L119.081 70.0732C119.081 70.0768 117.505 70.0768 116.726 70.2013Z" fill="black"/>
<path d="M116.673 97.1926C116.673 97.1891 116.673 97.1891 116.673 97.1855C116.673 97.1855 116.673 97.1855 116.673 97.1819C116.673 97.1784 116.673 97.1748 116.669 97.1713C116.669 97.1642 116.666 97.157 116.666 97.1499C116.662 97.1428 116.662 97.1357 116.659 97.1286C116.655 97.1215 116.655 97.1144 116.651 97.1073C116.648 97.1001 116.644 97.093 116.644 97.0859C116.641 97.0788 116.637 97.0717 116.634 97.0646C116.63 97.0575 116.627 97.0504 116.623 97.0432L112.568 89.4924C112.565 89.4853 112.561 89.4781 112.558 89.471C112.554 89.4639 112.551 89.4568 112.543 89.4497C112.54 89.4426 112.533 89.4355 112.529 89.4284C112.526 89.4212 112.519 89.4141 112.515 89.4035C112.511 89.3963 112.504 89.3857 112.497 89.3786C112.49 89.3714 112.487 89.3608 112.479 89.3537C112.472 89.3465 112.469 89.3359 112.462 89.3288C112.455 89.3217 112.451 89.3145 112.444 89.3039C112.437 89.2968 112.433 89.2896 112.426 89.2825C112.419 89.2754 112.415 89.2683 112.408 89.2612C112.405 89.2541 112.398 89.2505 112.394 89.2434C112.391 89.2363 112.383 89.2327 112.38 89.2256C112.376 89.2221 112.373 89.215 112.369 89.2114C112.366 89.2078 112.362 89.2043 112.359 89.2007C112.355 89.1972 112.351 89.1936 112.348 89.1901C112.344 89.1865 112.341 89.1829 112.337 89.1794C112.334 89.1758 112.33 89.1723 112.33 89.1687C112.327 89.1652 112.323 89.1616 112.323 89.1616C112.319 89.158 112.316 89.1545 112.316 89.1509C112.312 89.1474 112.309 89.1438 112.309 89.1403C112.305 89.1367 112.302 89.1332 112.302 89.1296C112.298 89.126 112.298 89.1225 112.295 89.1225C112.291 89.1189 112.291 89.1189 112.287 89.1154C112.284 89.1118 112.284 89.1118 112.28 89.1083C112.277 89.1047 112.277 89.1047 112.273 89.1011C112.27 89.0976 112.27 89.0976 112.266 89.094C112.263 89.0905 112.263 89.0905 112.259 89.0869C112.255 89.0834 112.255 89.0834 112.252 89.0798C112.248 89.0762 112.245 89.0727 112.245 89.0727C112.241 89.0691 112.238 89.0656 112.238 89.0656C112.234 89.062 112.231 89.0585 112.231 89.0585C112.227 89.0549 112.223 89.0513 112.223 89.0513C112.22 89.0478 112.216 89.0442 112.216 89.0442C112.213 89.0407 112.206 89.0371 112.202 89.03C112.198 89.0265 112.191 89.0193 112.188 89.0158C112.184 89.0122 112.177 89.0051 112.174 89.0016C112.156 88.9838 112.134 88.966 112.113 88.9482C112.11 88.9446 112.106 88.9411 112.099 88.9375C112.095 88.934 112.092 88.9304 112.085 88.9269C112.081 88.9233 112.078 88.9197 112.07 88.9162C112.067 88.9126 112.063 88.9091 112.056 88.9055C112.053 88.902 112.049 88.902 112.049 88.8984C112.046 88.8949 112.042 88.8948 112.042 88.8913C112.038 88.8877 112.035 88.8877 112.035 88.8842C112.031 88.8806 112.028 88.8806 112.028 88.8771C112.024 88.8735 112.021 88.8735 112.021 88.87C112.017 88.8664 112.014 88.8664 112.014 88.8628C112.01 88.8593 112.006 88.8593 112.006 88.8557C112.003 88.8522 111.999 88.8522 111.999 88.8486C111.996 88.8451 111.992 88.8451 111.992 88.8415C111.989 88.8379 111.985 88.8379 111.985 88.8344C111.982 88.8308 111.978 88.8308 111.978 88.8273C111.974 88.8237 111.971 88.8237 111.971 88.8202C111.967 88.8166 111.964 88.8166 111.96 88.8131C111.957 88.8095 111.953 88.8095 111.95 88.8059C111.946 88.8024 111.942 88.8024 111.939 88.7988C111.935 88.7953 111.932 88.7953 111.928 88.7917C111.925 88.7881 111.921 88.7882 111.918 88.7846C111.914 88.781 111.91 88.781 111.907 88.7775C111.903 88.7739 111.896 88.7704 111.893 88.7668C111.889 88.7633 111.882 88.7597 111.878 88.7561C111.875 88.7526 111.868 88.749 111.864 88.7455C111.861 88.7419 111.853 88.7384 111.85 88.7348C111.843 88.7312 111.836 88.7241 111.829 88.7206C111.821 88.717 111.814 88.7135 111.807 88.7063C111.8 88.7028 111.793 88.6957 111.786 88.6921C111.779 88.6886 111.768 88.6815 111.761 88.6779C111.754 88.6743 111.743 88.6672 111.736 88.6637C111.725 88.6601 111.718 88.653 111.711 88.6494C111.708 88.6459 111.701 88.6423 111.697 88.6388L107.034 86.0175C107.031 86.0139 107.027 86.0139 107.023 86.0104C107.013 86.0068 107.006 85.9997 106.995 85.9961C106.988 85.9926 106.977 85.9855 106.97 85.9819C106.963 85.9784 106.952 85.9748 106.945 85.9712C106.938 85.9677 106.927 85.9641 106.92 85.9606C106.913 85.957 106.903 85.9535 106.895 85.9499C106.888 85.9464 106.878 85.9428 106.871 85.9392C106.863 85.9357 106.853 85.9321 106.846 85.9286C106.839 85.925 106.828 85.9215 106.821 85.9215C106.814 85.9179 106.803 85.9179 106.796 85.9143C106.789 85.9143 106.785 85.9108 106.778 85.9108C106.775 85.9108 106.775 85.9108 106.771 85.9108C106.76 85.9072 106.753 85.9072 106.743 85.9072C106.732 85.9072 106.721 85.9072 106.711 85.9072C106.679 85.9072 106.654 85.9179 106.639 85.9357L106.085 86.5723C106.088 86.5688 106.099 86.5723 106.102 86.5688C106.056 86.6043 106.053 86.679 106.12 86.8035L110.175 94.3544C110.321 94.6247 110.719 95.0053 111.067 95.2009L115.73 97.8222C115.972 97.9573 116.114 97.9609 116.136 97.8613C116.132 97.8755 116.136 97.8933 116.125 97.904L116.68 97.2673C116.687 97.2602 116.691 97.2495 116.694 97.2389C116.698 97.2317 116.698 97.2211 116.698 97.214C116.673 97.2104 116.673 97.2033 116.673 97.1926ZM106.156 86.5545C106.17 86.5545 106.173 86.5474 106.188 86.551C106.191 86.551 106.198 86.5581 106.205 86.5581C106.188 86.551 106.173 86.5581 106.156 86.5545ZM111.505 89.5671C111.548 89.6026 111.594 89.6382 111.633 89.6773C111.59 89.6382 111.548 89.6026 111.505 89.5671ZM111.797 89.8516C111.814 89.8729 111.836 89.8907 111.853 89.9121C111.836 89.8907 111.814 89.8694 111.797 89.8516ZM116.111 97.8328C116.107 97.7937 116.097 97.7439 116.061 97.6834C116.09 97.7368 116.107 97.783 116.111 97.8222C116.114 97.8293 116.111 97.8293 116.111 97.8328Z" fill="#455A64"/>
<path opacity="0.15" d="M116.672 97.1924C116.672 97.1889 116.672 97.1889 116.672 97.1853C116.672 97.1853 116.672 97.1853 116.672 97.1818C116.672 97.1782 116.672 97.1746 116.669 97.1711C116.669 97.164 116.665 97.1569 116.665 97.1497C116.662 97.1426 116.662 97.1355 116.658 97.1284C116.655 97.1213 116.655 97.1142 116.651 97.1071C116.648 97.1 116.644 97.0928 116.644 97.0857C116.64 97.0786 116.637 97.0715 116.633 97.0644C116.63 97.0573 116.626 97.0502 116.623 97.043L112.568 89.4922L112.013 90.1288L116.068 97.6797C116.096 97.7331 116.114 97.7793 116.118 97.8184C116.121 97.854 116.118 97.8824 116.1 97.9038L116.655 97.2671C116.662 97.26 116.665 97.2493 116.669 97.2387C116.672 97.2315 116.672 97.2209 116.672 97.2138C116.672 97.2102 116.672 97.2031 116.672 97.1924Z" fill="white"/>
<path opacity="0.2" d="M112.551 89.4749C112.547 89.4678 112.544 89.4607 112.537 89.4536C112.533 89.4465 112.526 89.4394 112.522 89.4323C112.519 89.4251 112.512 89.418 112.508 89.4074C112.505 89.4002 112.497 89.3896 112.49 89.3825C112.483 89.3753 112.48 89.3647 112.473 89.3576C112.465 89.3505 112.462 89.3398 112.455 89.3327C112.448 89.3256 112.444 89.3184 112.437 89.3078C112.43 89.3007 112.426 89.2935 112.419 89.2864C112.412 89.2793 112.409 89.2722 112.401 89.2651C112.398 89.258 112.391 89.2544 112.387 89.2473C112.384 89.2402 112.377 89.2366 112.373 89.2295C112.369 89.226 112.366 89.2188 112.362 89.2153C112.359 89.2117 112.355 89.2082 112.352 89.2046C112.348 89.2011 112.345 89.1975 112.341 89.194C112.337 89.1904 112.334 89.1868 112.33 89.1833C112.327 89.1797 112.323 89.1762 112.323 89.1726C112.32 89.1691 112.316 89.1655 112.316 89.1655C112.313 89.1619 112.309 89.1584 112.309 89.1548C112.305 89.1513 112.302 89.1477 112.302 89.1442C112.298 89.1406 112.295 89.137 112.295 89.1335C112.291 89.1299 112.291 89.1264 112.288 89.1264C112.284 89.1228 112.284 89.1228 112.28 89.1193C112.277 89.1157 112.277 89.1157 112.273 89.1122C112.27 89.1086 112.27 89.1086 112.266 89.105C112.263 89.1015 112.263 89.1015 112.259 89.0979C112.256 89.0944 112.256 89.0944 112.252 89.0908C112.248 89.0873 112.248 89.0873 112.245 89.0837C112.241 89.0801 112.238 89.0766 112.238 89.0766C112.234 89.073 112.231 89.0695 112.231 89.0695C112.227 89.0659 112.224 89.0624 112.224 89.0624C112.22 89.0588 112.216 89.0552 112.216 89.0552C112.213 89.0517 112.209 89.0481 112.209 89.0481C112.206 89.0446 112.199 89.041 112.195 89.0339C112.192 89.0303 112.184 89.0232 112.181 89.0197C112.177 89.0161 112.17 89.009 112.167 89.0054C112.149 88.9877 112.128 88.9699 112.106 88.9521C112.103 88.9485 112.099 88.945 112.092 88.9414C112.088 88.9379 112.085 88.9343 112.078 88.9308C112.074 88.9272 112.071 88.9236 112.064 88.9201C112.06 88.9165 112.056 88.913 112.049 88.9094C112.046 88.9059 112.042 88.9059 112.042 88.9023C112.039 88.8988 112.035 88.8988 112.035 88.8952C112.032 88.8916 112.028 88.8916 112.028 88.8881C112.024 88.8845 112.021 88.8845 112.021 88.881C112.017 88.8774 112.014 88.8774 112.014 88.8739C112.01 88.8703 112.007 88.8703 112.007 88.8667C112.003 88.8632 112 88.8632 112 88.8596C111.996 88.8561 111.992 88.8561 111.992 88.8525C111.989 88.849 111.985 88.849 111.985 88.8454C111.982 88.8418 111.978 88.8418 111.978 88.8383C111.975 88.8347 111.971 88.8347 111.971 88.8312C111.968 88.8276 111.964 88.8276 111.964 88.8241C111.96 88.8205 111.957 88.8205 111.953 88.8169C111.95 88.8134 111.946 88.8134 111.943 88.8098C111.939 88.8063 111.936 88.8063 111.932 88.8027C111.928 88.7992 111.925 88.7992 111.921 88.7956C111.918 88.792 111.914 88.792 111.911 88.7885C111.907 88.7849 111.903 88.7849 111.9 88.7814C111.896 88.7778 111.889 88.7743 111.886 88.7707C111.882 88.7672 111.875 88.7636 111.871 88.76C111.868 88.7565 111.861 88.7529 111.857 88.7494C111.854 88.7458 111.847 88.7423 111.843 88.7387C111.836 88.7351 111.829 88.728 111.822 88.7245C111.815 88.7209 111.807 88.7174 111.8 88.7102C111.793 88.7067 111.786 88.6996 111.779 88.696C111.772 88.6925 111.761 88.6853 111.754 88.6818C111.747 88.6782 111.736 88.6711 111.729 88.6676C111.719 88.664 111.711 88.6569 111.704 88.6533C111.701 88.6498 111.694 88.6462 111.69 88.6427L107.027 86.0214C107.024 86.0178 107.02 86.0178 107.017 86.0143C107.006 86.0107 106.999 86.0036 106.988 86.0001C106.981 85.9965 106.97 85.9894 106.963 85.9858C106.956 85.9823 106.945 85.9787 106.938 85.9752C106.931 85.9716 106.921 85.968 106.913 85.9645C106.906 85.9609 106.896 85.9574 106.889 85.9538C106.881 85.9503 106.871 85.9467 106.864 85.9431C106.857 85.9396 106.846 85.936 106.839 85.9325C106.832 85.9289 106.821 85.9254 106.814 85.9254C106.807 85.9218 106.796 85.9218 106.789 85.9182C106.782 85.9182 106.778 85.9147 106.771 85.9147C106.768 85.9147 106.768 85.9147 106.764 85.9147C106.753 85.9111 106.746 85.9111 106.736 85.9111C106.725 85.9111 106.714 85.9111 106.704 85.9111C106.672 85.9111 106.647 85.9218 106.632 85.9396L106.078 86.5762C106.103 86.5478 106.149 86.5407 106.216 86.5549C106.284 86.5691 106.369 86.6047 106.472 86.6616L111.135 89.2829C111.221 89.3327 111.31 89.3931 111.398 89.4607C111.487 89.5283 111.573 89.603 111.655 89.6777C111.736 89.7559 111.811 89.8342 111.875 89.9124C111.939 89.9907 111.992 90.0653 112.028 90.1329L112.583 89.4963C112.558 89.4892 112.554 89.482 112.551 89.4749Z" fill="white"/>
<path d="M132.6 73.7081C131.938 72.5735 131.07 71.7021 129.761 71.6025C129.761 71.6025 127.613 72.7122 127.613 77.7485L127.755 90.3499H127.759C127.45 90.4743 127.144 90.6059 126.834 90.734C124.284 91.7939 121.453 92.7364 118.729 93.1845C117.359 92.0286 115.407 91.4311 113.618 91.4489L114.304 92.7293C113.002 93.5651 110.057 92.0606 110.057 92.0606C109.84 93.8959 111.032 95.8058 112.607 96.7697C114.187 97.7335 129.249 96.318 132.443 94.248C134.542 92.8893 134.047 79.8967 134.047 79.8967C134.193 77.7343 133.688 75.5789 132.6 73.7081Z" fill="#FBA9A8"/>
<path d="M106.874 88.2588C106.832 88.6571 106.657 89.3685 106.704 89.7668C106.839 90.9583 107.319 92.1285 108.155 92.9892C108.333 93.1741 108.535 93.3484 108.781 93.4302C109.023 93.512 109.318 93.4907 109.506 93.3164C109.705 93.1315 109.745 92.8327 109.759 92.5588C109.784 92.1498 109.787 91.7372 109.691 91.3389C109.595 90.9405 109.385 90.56 109.047 90.3252C108.802 90.1545 108.51 90.0727 108.233 89.966C107.956 89.8593 107.724 89.6744 107.507 89.4396L106.874 88.2588Z" fill="#FBA9A8"/>
<path d="M119.077 67.7365V72.4953C118.611 72.9363 118.163 73.4414 118.121 74.0674C118.078 74.6685 118.448 75.2553 118.971 75.5541C119.493 75.8528 120.141 75.8848 120.72 75.7248C121.3 75.5647 121.816 75.2269 122.268 74.8285C123.491 73.7402 124.331 71.9227 124.331 70.3115V65.4922L119.077 67.7365Z" fill="#FBA9A8"/>
<path d="M124.128 65.4922C123.633 68.1099 122.612 70.3791 119.077 71.1936V67.7365L124.128 65.4922Z" fill="#AB6160"/>
<path d="M122.897 62.7321C122.854 63.0486 122.826 63.6817 122.89 63.9947C122.954 64.3077 123.103 64.61 123.342 64.8198C123.584 65.0297 123.893 65.1151 124.202 65.0368C124.003 64.2223 124.54 63.2976 125.344 63.0628C126.151 62.8317 127.098 63.326 127.361 64.1227C127.553 64.6954 127.411 65.3391 127.087 65.8477C126.763 66.3563 126.276 66.7405 125.76 67.0499C125.145 67.3024 124.43 67.0321 124.074 66.4666C122.556 68.5615 119.828 70.1976 117.206 70.0838C116.495 70.0517 115.769 69.8775 115.19 69.4649C114.169 68.7393 114.048 67.587 113.877 66.4524C113.66 65.0155 113.561 63.5501 113.731 62.1025C113.97 60.1037 114.774 58.1155 116.264 56.7568C117.342 61.0462 121.368 62.476 122.897 62.7321Z" fill="#FBA9A8"/>
<path d="M117.434 62.4609L115.734 64.7408L117.423 65.2458L117.434 62.4609Z" fill="#AB6160"/>
<path d="M118.996 66.2559C118.537 66.423 118.078 66.5866 117.619 66.7538C117.779 67.0703 118.245 67.2517 118.583 67.1415C118.917 67.0312 119.052 66.608 118.996 66.2559Z" fill="#AB6160"/>
<path opacity="0.3" d="M118.996 66.2559C118.537 66.423 118.078 66.5866 117.619 66.7538C117.779 67.0703 118.245 67.2517 118.583 67.1415C118.917 67.0312 119.052 66.608 118.996 66.2559Z" fill="black"/>
<path d="M118.121 67.1384C118.274 67.1811 118.437 67.1882 118.579 67.142C118.843 67.0566 118.981 66.7756 119.003 66.4875C118.818 66.4698 118.626 66.5089 118.469 66.612C118.288 66.7329 118.167 66.9286 118.121 67.1384Z" fill="#AB6160"/>
<path d="M119.917 62.8212C119.917 63.0951 119.693 63.3192 119.419 63.3156C119.145 63.3156 118.921 63.0915 118.924 62.8177C118.924 62.5438 119.148 62.3197 119.422 62.3233C119.696 62.3233 119.917 62.5474 119.917 62.8212Z" fill="#263238"/>
<path d="M115.741 62.6425C115.741 62.9164 115.517 63.1405 115.243 63.1369C114.97 63.1369 114.746 62.9128 114.749 62.639C114.749 62.3651 114.973 62.141 115.247 62.1446C115.521 62.1446 115.745 62.3651 115.741 62.6425Z" fill="#263238"/>
<path d="M115.268 60.6628C114.898 60.9153 114.532 61.1678 114.162 61.4204C114.055 61.1572 114.162 60.8193 114.379 60.6415C114.596 60.4636 115.033 60.5027 115.268 60.6628Z" fill="#263238"/>
<path d="M119.525 60.6192C119.892 60.8753 120.258 61.1314 120.624 61.3875C120.735 61.1278 120.632 60.7864 120.411 60.605C120.194 60.4236 119.76 60.4592 119.525 60.6192Z" fill="#263238"/>
<g clip-path="url(#clip1)">
<path d="M128.257 35.1866V40.8336L120.433 36.3159V30.6689" stroke="white" stroke-width="0.911201" stroke-linecap="round" stroke-linejoin="round"/>
<path d="M129.235 32.9273L119.455 27.2803V30.1038L129.235 35.7508V32.9273Z" stroke="white" stroke-width="0.911201" stroke-linecap="round" stroke-linejoin="round"/>
<path d="M124.345 38.575V30.1045" stroke="white" stroke-width="0.911201" stroke-linecap="round" stroke-linejoin="round"/>
<path d="M124.345 30.1037L122.144 28.8331C121.82 28.6459 121.509 28.3176 121.28 27.9205C121.051 27.5233 120.922 27.0899 120.922 26.7155C120.922 26.341 121.051 26.0563 121.28 25.9239C121.509 25.7916 121.82 25.8224 122.144 26.0096C123.856 26.9978 124.345 30.1037 124.345 30.1037Z" stroke="white" stroke-width="0.911201" stroke-linecap="round" stroke-linejoin="round"/>
<path d="M124.345 30.1038L126.546 31.3744C126.87 31.5616 127.181 31.5924 127.41 31.46C127.64 31.3276 127.769 31.0429 127.769 30.6685C127.769 30.2941 127.64 29.8606 127.41 29.4635C127.181 29.0663 126.87 28.7381 126.546 28.5508C124.834 27.5626 124.345 30.1038 124.345 30.1038Z" stroke="white" stroke-width="0.911201" stroke-linecap="round" stroke-linejoin="round"/>
</g>
</g>
<defs>
<linearGradient id="paint0_linear" x1="137.162" y1="-13.0744" x2="166.431" y2="7.09224" gradientUnits="userSpaceOnUse">
<stop stop-color="#F90707"/>
<stop offset="1" stop-color="#F77A06"/>
</linearGradient>
<linearGradient id="paint1_linear" x1="59.6242" y1="-31.1666" x2="107.412" y2="-10.7651" gradientUnits="userSpaceOnUse">
<stop stop-color="#F90707"/>
<stop offset="1" stop-color="#F77A06"/>
</linearGradient>
<linearGradient id="paint2_linear" x1="72.1514" y1="16.8003" x2="81.6975" y2="29.4586" gradientUnits="userSpaceOnUse">
<stop stop-color="#F90707"/>
<stop offset="1" stop-color="#F77A06"/>
</linearGradient>
<linearGradient id="paint3_linear" x1="63.6577" y1="21.711" x2="73.2002" y2="34.3683" gradientUnits="userSpaceOnUse">
<stop stop-color="#F90707"/>
<stop offset="1" stop-color="#F77A06"/>
</linearGradient>
<linearGradient id="paint4_linear" x1="46.6715" y1="31.5235" x2="56.2152" y2="44.1767" gradientUnits="userSpaceOnUse">
<stop stop-color="#F90707"/>
<stop offset="1" stop-color="#F77A06"/>
</linearGradient>
<linearGradient id="paint5_linear" x1="55.1646" y1="26.6153" x2="64.7077" y2="39.2705" gradientUnits="userSpaceOnUse">
<stop stop-color="#F90707"/>
<stop offset="1" stop-color="#F77A06"/>
</linearGradient>
<linearGradient id="paint6_linear" x1="72.7815" y1="32.1775" x2="76.1305" y2="35.6909" gradientUnits="userSpaceOnUse">
<stop stop-color="#F90707"/>
<stop offset="1" stop-color="#F77A06"/>
</linearGradient>
<linearGradient id="paint7_linear" x1="64.2883" y1="37.0818" x2="67.6373" y2="40.5952" gradientUnits="userSpaceOnUse">
<stop stop-color="#F90707"/>
<stop offset="1" stop-color="#F77A06"/>
</linearGradient>
<linearGradient id="paint8_linear" x1="55.7947" y1="41.99" x2="59.1437" y2="45.5034" gradientUnits="userSpaceOnUse">
<stop stop-color="#F90707"/>
<stop offset="1" stop-color="#F77A06"/>
</linearGradient>
<linearGradient id="paint9_linear" x1="47.3011" y1="46.8952" x2="50.65" y2="50.4087" gradientUnits="userSpaceOnUse">
<stop stop-color="#F90707"/>
<stop offset="1" stop-color="#F77A06"/>
</linearGradient>
<linearGradient id="paint10_linear" x1="90.2024" y1="59.2971" x2="101.087" y2="78.3031" gradientUnits="userSpaceOnUse">
<stop stop-color="#F90707"/>
<stop offset="1" stop-color="#F77A06"/>
</linearGradient>
<linearGradient id="paint11_linear" x1="90.9221" y1="62.8917" x2="106.625" y2="72.8549" gradientUnits="userSpaceOnUse">
<stop stop-color="#F90707"/>
<stop offset="1" stop-color="#F77A06"/>
</linearGradient>
<linearGradient id="paint12_linear" x1="77.6615" y1="62.8917" x2="93.4083" y2="72.9499" gradientUnits="userSpaceOnUse">
<stop stop-color="#F90707"/>
<stop offset="1" stop-color="#F77A06"/>
</linearGradient>
<linearGradient id="paint13_linear" x1="151.698" y1="35.1528" x2="196.654" y2="83.6041" gradientUnits="userSpaceOnUse">
<stop stop-color="#F90707"/>
<stop offset="1" stop-color="#F77A06"/>
</linearGradient>
<linearGradient id="paint14_linear" x1="131.956" y1="49.7016" x2="154.562" y2="66.8475" gradientUnits="userSpaceOnUse">
<stop stop-color="#F90707"/>
<stop offset="1" stop-color="#F77A06"/>
</linearGradient>
<clipPath id="clip0">
<rect width="165.5" height="159.375" fill="white" transform="translate(0.75)"/>
</clipPath>
<clipPath id="clip1">
<rect width="13.5528" height="13.5528" fill="white" transform="matrix(0.866025 0.5 0 1 118.477 22.7627)"/>
</clipPath>
</defs>
</svg>
