<svg width="24" height="24" viewBox="0 0 24 24" fill="none" xmlns="http://www.w3.org/2000/svg">
<g clip-path="url(#clip0)">
<path d="M23.8815 8.78871L19.96 2.4881C19.8167 2.25804 19.565 2.11816 19.2941 2.11816H4.706C4.43516 2.11816 4.1834 2.25804 4.0401 2.4881L0.118571 8.78871C-0.0696772 9.09119 -0.0307244 9.48231 0.213727 9.74139L11.4293 21.6364C11.5775 21.7936 11.7841 21.8827 12 21.8827C12.216 21.8827 12.4225 21.7936 12.5707 21.6362L23.7863 9.74139C24.0305 9.48203 24.0698 9.09119 23.8815 8.78871ZM12.0001 19.9552L1.76954 9.10478L5.1418 3.68678H18.8585L22.2306 9.10478L12.0001 19.9552Z" fill="#133F5D"/>
<path d="M23.2154 8.41895H0.78418V9.98756H23.2154V8.41895Z" fill="#133F5D"/>
<path d="M8.05611 9.12782L9.26552 3.05544L7.72695 2.74902L6.47207 9.04963C6.44254 9.19864 6.45665 9.35291 6.51313 9.4941L11.2713 21.3894L12.7277 20.807L8.05611 9.12782Z" fill="#133F5D"/>
<path d="M17.5772 8.98675L16.27 2.86914L14.7362 3.19698L15.9934 9.08008L11.2725 20.8055L12.7274 21.3911L17.5381 9.44373C17.596 9.29865 17.6099 9.13942 17.5772 8.98675Z" fill="#133F5D"/>
</g>
<defs>
<clipPath id="clip0">
<rect width="24" height="24" fill="white"/>
</clipPath>
</defs>
</svg>
