<svg width="36" height="36" viewBox="0 0 36 36" fill="none" xmlns="http://www.w3.org/2000/svg">
<g clip-path="url(#clip0)">
<path d="M10.2266 14.7451L17.5275 34.0017H18.3955L25.6963 14.7451H10.2266Z" fill="#70BBEF"/>
<path d="M16.3767 33.3591C16.6815 33.7027 17.0917 33.9165 17.528 34.0012L10.2271 14.7447L0.0225334 11.5303C0.06901 11.8752 -1.03391 10.2433 16.3767 33.3591Z" fill="#9CD7F2"/>
<path d="M3.6347 12.6681L0.0225318 11.5303C0.0690084 11.8752 -1.03384 10.2433 16.3767 33.359C16.6024 33.6134 16.8861 33.7963 17.1952 33.9086L3.6347 12.6681Z" fill="#71C5DB"/>
<path d="M6.05176 3.59256L10.2269 14.7449L17.9618 5.92082L6.19288 3.52246C6.14176 3.54468 6.09444 3.56823 6.05176 3.59256Z" fill="#9CD7F2"/>
<path d="M25.6963 14.7455L18.3955 34.0019C18.8318 33.9172 19.242 33.7034 19.5469 33.3598C24.0746 27.3628 35.9545 11.6481 35.9904 11.5029L25.6963 14.7455Z" fill="#9CD7F2"/>
<path d="M25.6968 14.7446L29.8706 3.59586C29.8214 3.56788 29.7724 3.54418 29.7248 3.52344L17.9619 5.92053L25.6968 14.7446Z" fill="#9CD7F2"/>
<path d="M10.2266 14.7449H25.6963L17.9614 5.9209L10.2266 14.7449Z" fill="#57ADDD"/>
<path d="M6.05207 3.59277C5.77673 3.74936 5.73426 3.84196 5.30141 4.39701C-0.3335 11.623 -0.0387501 11.0766 0.0226327 11.5307L10.2272 14.745L6.05207 3.59277Z" fill="#70BBEF"/>
<path d="M3.63484 12.6686L6.12166 3.77854L6.05212 3.59277C5.77684 3.74936 5.73431 3.84196 5.30146 4.39701C-0.333522 11.623 -0.0387024 11.0767 0.0226101 11.5308L3.63484 12.6686Z" fill="#57ADDD"/>
<path d="M25.6973 14.7454L35.9912 11.503C36.0203 11.3519 35.9765 11.2624 35.9034 11.1686C30.7984 4.61509 30.0905 3.65005 29.8711 3.59668L25.6973 14.7454Z" fill="#70BBEF"/>
<path d="M17.9623 5.92089L29.7252 3.5238C29.4776 3.41643 29.2803 3.40089 29.2729 3.39956L19.7927 2.12268C16.8101 1.72091 15.5247 2.3282 6.62691 3.40293C6.6132 3.40588 6.42195 3.42311 6.19336 3.5226L17.9623 5.92089Z" fill="#57ADDD"/>
</g>
<defs>
<clipPath id="clip0">
<rect width="36" height="36" fill="white"/>
</clipPath>
</defs>
</svg>
