<svg id="e1Qiwlta3Cy1" xmlns="http://www.w3.org/2000/svg" xmlns:xlink="http://www.w3.org/1999/xlink" viewBox="0 0 850 850" shape-rendering="geometricPrecision" text-rendering="geometricPrecision"><style><![CDATA[#e1Qiwlta3Cy2_tr {animation: e1Qiwlta3Cy2_tr__tr 2000ms linear infinite normal forwards}@keyframes e1Qiwlta3Cy2_tr__tr { 0% {transform: translate(425px,425px) rotate(1440deg)} 100% {transform: translate(425px,425px) rotate(0deg)}} #e1Qiwlta3Cy3_tr {animation: e1Qiwlta3Cy3_tr__tr 2000ms linear infinite normal forwards}@keyframes e1Qiwlta3Cy3_tr__tr { 0% {transform: translate(425px,425px) rotate(0deg)} 100% {transform: translate(425px,425px) rotate(719.900000deg)}}]]></style><defs><linearGradient id="e1Qiwlta3Cy2-fill" x1="132.960493" y1="374.912810" x2="361.138781" y2="691.710282" spreadMethod="pad" gradientUnits="userSpaceOnUse"><stop id="e1Qiwlta3Cy2-fill-0" offset="0%" stop-color="rgb(255,255,255)"/><stop id="e1Qiwlta3Cy2-fill-1" offset="100%" stop-color="rgba(255,255,255,0)"/></linearGradient><linearGradient id="e1Qiwlta3Cy3-fill" x1="452" y1="73" x2="800" y2="425" spreadMethod="pad" gradientUnits="userSpaceOnUse"><stop id="e1Qiwlta3Cy3-fill-0" offset="0%" stop-color="rgb(249,7,7)"/><stop id="e1Qiwlta3Cy3-fill-1" offset="100%" stop-color="rgb(247,122,6)"/></linearGradient></defs><g id="e1Qiwlta3Cy2_tr" transform="translate(425,425) rotate(1440)"><path id="e1Qiwlta3Cy2" d="M425,725C590.685000,725,725,590.685000,725,425C725,259.315000,590.685000,125,425,125C259.315000,125,125,259.315000,125,425C125,590.685000,259.315000,725,425,725ZM425,775C618.300000,775,775,618.300000,775,425C775,231.700000,618.300000,75,425,75C231.700000,75,75,231.700000,75,425C75,618.300000,231.700000,775,425,775Z" transform="translate(-425,-425)" clip-rule="evenodd" fill="url(#e1Qiwlta3Cy2-fill)" fill-rule="evenodd" stroke="none" stroke-width="1"/></g><g id="e1Qiwlta3Cy3_tr" transform="translate(425,425) rotate(0)"><path id="e1Qiwlta3Cy3" d="M100,375C127.614000,375,150,397.386000,150,425C150,461.114000,157.113000,496.873000,170.933000,530.238000C184.753000,563.603000,205.010000,593.918000,230.546000,619.454000C256.082000,644.990000,286.398000,665.247000,319.762000,679.067000C353.127000,692.887000,388.887000,700,425,700C452.614000,700,475,722.386000,475,750C475,777.614000,452.614000,800,425,800C375.754000,800,326.991000,790.300000,281.494000,771.455000C235.997000,752.609000,194.657000,724.987000,159.835000,690.165000C125.013000,655.343000,97.390700,614.003000,78.545200,568.506000C59.699700,523.009000,50,474.246000,50,425C50,397.386000,72.385800,375,100,375Z" transform="translate(-425,-425)" clip-rule="evenodd" fill="url(#e1Qiwlta3Cy3-fill)" fill-rule="evenodd" stroke="none" stroke-width="1"/></g></svg>